<svg width="93" height="26" viewBox="0 0 93 26" fill="none" xmlns="http://www.w3.org/2000/svg">
<g clip-path="url(#clip0_0_44)">
<path fill-rule="evenodd" clip-rule="evenodd" d="M57.5203 20.3334C52.1708 24.0305 44.3898 26.0001 37.6786 26.0001C28.2765 26.0001 19.8471 22.7576 13.4277 17.3637C12.9414 16.9396 13.3629 16.3638 13.9788 16.6971C20.8845 20.4546 29.4113 22.6971 38.2297 22.6971C44.1628 22.6971 50.7118 21.5456 56.7421 19.1516C57.6496 18.8183 58.3956 19.7273 57.5202 20.3334H57.5203Z" fill="#FF9900"/>
<path fill-rule="evenodd" clip-rule="evenodd" d="M59.7575 17.9394C59.0768 17.1213 55.2185 17.5455 53.5002 17.7576C52.9815 17.8182 52.8842 17.394 53.3705 17.0909C56.4506 15.0606 61.4758 15.6666 62.0594 16.3333C62.643 17 61.8973 21.7269 59.0113 23.9697C58.5576 24.303 58.136 24.1212 58.3307 23.6666C58.9794 22.1514 60.4383 18.7877 59.7575 17.9394Z" fill="#FF9900"/>
<path fill-rule="evenodd" clip-rule="evenodd" d="M53.5974 2.84894V0.878745C53.5937 0.814165 53.6046 0.749583 53.6294 0.689197C53.6542 0.62881 53.6922 0.57397 53.7412 0.528241C53.7901 0.482511 53.8488 0.446915 53.9134 0.423765C53.978 0.400616 54.0471 0.390431 54.1162 0.393872H63.5183C63.6598 0.391087 63.7969 0.440327 63.9 0.531002C64.003 0.621677 64.0639 0.746543 64.0695 0.878745V2.54542C64.0695 2.81814 63.8102 3.18159 63.3562 3.78789L58.4932 10.2728C60.3088 10.2424 62.2219 10.4848 63.8427 11.333C64.1992 11.5149 64.2964 11.8179 64.329 12.0906V14.1815C64.329 14.4846 64.0047 14.8177 63.6483 14.6361C60.7628 13.2118 56.9047 13.0603 53.7275 14.6664C53.4033 14.8179 53.0469 14.5149 53.0469 14.2119V12.2121C53.0469 11.909 53.0469 11.3638 53.4035 10.8788L59.0448 3.33335H54.1486C54.0072 3.33614 53.8702 3.28696 53.7672 3.19638C53.6641 3.10581 53.6031 2.98106 53.5974 2.84894ZM19.3284 15.0605H16.4754C16.3475 15.0485 16.2275 14.9975 16.1337 14.9153C16.0399 14.8332 15.9777 14.7245 15.9566 14.606V0.909078C15.9622 0.776892 16.0231 0.65204 16.1261 0.561368C16.2292 0.470696 16.3662 0.421445 16.5077 0.424206H19.1662C19.2977 0.426064 19.4237 0.47367 19.5197 0.557722C19.6156 0.641775 19.6745 0.756236 19.685 0.878745V2.66666H19.7498C20.4305 0.939411 21.76 0.121241 23.5107 0.121241C25.2938 0.121241 26.4285 0.939411 27.2067 2.66666C27.8874 0.939411 29.4762 0.121241 31.1623 0.121241C32.3619 0.121241 33.6587 0.57578 34.4693 1.63643C35.3768 2.7879 35.1826 4.45457 35.1826 5.93943V14.6061C35.177 14.7383 35.1161 14.8631 35.013 14.9538C34.91 15.0445 34.773 15.0937 34.6315 15.091H31.8105C31.5187 15.0606 31.2917 14.8486 31.2917 14.6061V7.33329C31.2917 6.75751 31.3565 5.30299 31.2269 4.75754C31 3.84846 30.384 3.57574 29.541 3.57574C29.1688 3.58564 28.8078 3.69706 28.5025 3.89628C28.1972 4.09549 27.9609 4.37381 27.8226 4.69696C27.5309 5.39389 27.5633 6.54545 27.5633 7.33329V14.6061C27.5577 14.7383 27.4968 14.8631 27.3938 14.9538C27.2907 15.0445 27.1537 15.0937 27.0122 15.091H24.1591C23.8674 15.0606 23.6404 14.8486 23.6404 14.6061V7.33329C23.6404 5.8181 23.8997 3.5454 21.8897 3.5454C19.8472 3.5454 19.912 5.72719 19.912 7.33329V14.6061C19.8916 14.7357 19.8208 14.8537 19.7131 14.9376C19.6055 15.0215 19.4685 15.0653 19.3284 15.0606V15.0605ZM72.1747 0.121241C76.4219 0.121241 78.7238 3.51516 78.7238 7.8485C78.7238 12.0303 76.195 15.3636 72.1747 15.3636C68.0248 15.3636 65.7553 11.9697 65.7553 7.72725C65.7229 3.4545 68.0248 0.120872 72.1747 0.120872V0.121241ZM72.1747 2.93938C70.0673 2.93938 69.9377 5.63637 69.9377 7.30305C69.9377 8.96972 69.9052 12.5455 72.1424 12.5455C74.347 12.5455 74.4766 9.66665 74.4766 7.90907C74.4766 6.75751 74.4118 5.36365 74.0551 4.27267C73.7309 3.30292 73.0825 2.93938 72.1747 2.93938ZM84.2029 15.0605H81.3499C81.0581 15.0302 80.8311 14.8182 80.8311 14.5757V0.848227C80.849 0.723095 80.9146 0.608199 81.0158 0.524682C81.1171 0.441165 81.2473 0.394647 81.3823 0.393688H84.0408C84.1614 0.397661 84.2773 0.438278 84.3709 0.509376C84.4645 0.580475 84.5308 0.678174 84.5596 0.787652V2.87853H84.6244C85.435 0.999709 86.5373 0.120965 88.515 0.120965C89.7794 0.120965 91.0438 0.545078 91.8543 1.72706C92.6 2.81796 92.6 4.66645 92.6 5.99982V14.6362C92.5804 14.758 92.5133 14.8688 92.4115 14.9471C92.3097 15.0254 92.1805 15.0657 92.0488 15.0603H89.1955C88.9362 15.0299 88.7092 14.8482 88.6768 14.6362V7.18181C88.6768 5.66662 88.8713 3.48464 86.8936 3.48464C86.213 3.48464 85.5644 3.90876 85.2402 4.57554C84.8511 5.42376 84.7864 6.24221 84.7864 7.18162V14.5759C84.7683 14.7091 84.6992 14.8315 84.5919 14.9207C84.4846 15.0098 84.3464 15.0596 84.2028 15.0608L84.2029 15.0605ZM46.1084 8.51518C46.1084 9.5455 46.1408 10.4242 45.5896 11.3641C45.1358 12.1217 44.4225 12.5763 43.6119 12.5763C42.5096 12.5763 41.8612 11.7884 41.8612 10.6369C41.8612 8.36416 44.0334 7.93986 46.1084 7.93986V8.51518ZM48.9939 15.0303C48.9015 15.1057 48.7861 15.1521 48.664 15.163C48.5419 15.1738 48.4192 15.1486 48.3132 15.0909C47.3731 14.3636 47.1788 14 46.6598 13.303C45.1036 14.7874 43.9688 15.2424 41.9587 15.2424C39.5596 15.2424 37.6791 13.8484 37.6791 11.0908C37.6791 8.90905 38.9435 7.45453 40.7272 6.72718C42.2834 6.09101 44.4559 5.96958 46.109 5.78777V5.45447C46.109 4.8183 46.1739 4.06052 45.7524 3.51507C45.3959 3.0302 44.7474 2.81814 44.1643 2.81814C43.062 2.81814 42.0893 3.33325 41.8624 4.42424C41.7976 4.66663 41.6355 4.90911 41.3761 4.90911L38.6203 4.63639C38.3934 4.57581 38.134 4.42433 38.1988 4.09094C38.8472 0.939411 41.8624 0 44.5857 0C45.9798 0 47.7953 0.333298 48.8977 1.33328C50.2918 2.54542 50.1621 4.18222 50.1621 5.93934V10.0909C50.1621 11.3333 50.7132 11.8788 51.232 12.5757C51.4265 12.8181 51.4588 13.1211 51.232 13.2726C50.6159 13.7272 49.5785 14.5757 48.9949 15.0302L48.9939 15.0303ZM8.66187 8.51518C8.66187 9.5455 8.69433 10.4242 8.14311 11.3641C7.68935 12.1217 6.97597 12.5763 6.16542 12.5763C5.06309 12.5763 4.41471 11.7884 4.41471 10.6369C4.41471 8.36416 6.58692 7.93986 8.66187 7.93986V8.51518ZM11.5149 15.0303C11.4225 15.1057 11.3071 15.1521 11.185 15.163C11.0629 15.1738 10.9402 15.1486 10.8343 15.0909C9.89412 14.3636 9.69989 14 9.18083 13.303C7.62464 14.7874 6.48986 15.2424 4.47981 15.2424C2.08062 15.2424 0.200195 13.8484 0.200195 11.0908C0.200195 8.90905 1.4646 7.45453 3.24826 6.72718C4.80445 6.09101 6.97696 5.96958 8.63011 5.78777V5.45447C8.63011 4.8183 8.69492 4.06052 8.27352 3.51507C7.91692 3.0302 7.26845 2.81814 6.68537 2.81814C5.58303 2.81814 4.61042 3.33325 4.38344 4.42424C4.31863 4.66663 4.15656 4.90911 3.89713 4.90911L1.14135 4.63639C0.914468 4.57581 0.655037 4.42433 0.719846 4.09094C1.36822 0.939411 4.38344 0 7.10677 0C8.50089 0 10.3164 0.333298 11.4187 1.33328C12.8129 2.54542 12.6831 4.18222 12.6831 5.93934V10.0909C12.6831 11.3333 13.2343 11.8788 13.753 12.5757C13.9475 12.8181 13.9799 13.1211 13.753 13.2726C13.137 13.7272 12.0996 14.5757 11.516 15.0302L11.5149 15.0303Z" fill="black"/>
</g>
<defs>
<clipPath id="clip0_0_44">
<rect width="92.4" height="26" fill="white" transform="translate(0.200012)"/>
</clipPath>
</defs>
</svg>
