<svg width="93" height="26" viewBox="0 0 93 26" fill="none" xmlns="http://www.w3.org/2000/svg">
<g clip-path="url(#clip0_0_34)">
<path d="M11.779 0.00323486H12.6007C15.4532 0.0566935 18.2592 1.04568 20.2745 2.79645C19.5304 3.45132 18.7708 4.07946 18.0421 4.73432C16.9104 3.85226 15.5462 3.17066 14.0579 2.93009C11.8566 2.52915 9.48465 2.89 7.63983 3.97254C5.62448 5.10853 4.26025 7.03304 3.9657 9.0912C3.64014 11.1226 4.30675 13.261 5.84152 14.838C7.31427 16.3749 9.56216 17.3372 11.8876 17.404C14.0579 17.5109 16.3213 16.9363 17.9026 15.6265C19.1428 14.7044 19.7164 13.3011 19.9024 11.9379C17.329 11.9379 14.7556 11.9512 12.1821 11.9379V9.18475H23.0185C23.5766 12.1383 22.7704 15.4661 20.166 17.5778C18.4297 19.0746 16.0268 19.9567 13.5774 20.1304C11.2054 20.3309 8.75602 19.9433 6.64766 18.9543C4.12072 17.7916 2.10537 15.827 1.1132 13.5149C0.183041 11.3899 0.167539 8.98428 1.03569 6.84594C1.82633 4.8947 3.34559 3.17066 5.29893 1.96784C7.17475 0.778385 9.45364 0.123517 11.779 0.00323486Z" fill="#3780FF"/>
<path d="M73.9479 0.697266H77.2655V19.782C76.1648 19.782 75.0486 19.7954 73.9479 19.7686C73.9634 13.4204 73.9479 7.05884 73.9479 0.697266Z" fill="#38B137"/>
<path d="M30.3987 7.31307C32.4451 6.97896 34.6619 7.35317 36.3517 8.40898C37.8865 9.3445 38.9562 10.8146 39.2817 12.4184C39.7003 14.2761 39.1732 16.3075 37.778 17.7776C36.2742 19.4215 33.8093 20.3035 31.4064 20.1699C29.205 20.063 27.0656 19.1141 25.7634 17.5638C24.2907 15.8531 23.9341 13.5009 24.7402 11.4962C25.5464 9.3445 27.8253 7.70065 30.3987 7.31307ZM30.8638 9.85236C30.0266 10.0395 29.2515 10.4538 28.6934 11.0418C27.1897 12.5921 27.2827 15.118 28.9415 16.5614C29.8871 17.39 31.3134 17.7776 32.6311 17.5504C33.8558 17.3633 34.9255 16.655 35.5146 15.7194C36.5378 14.129 36.2432 11.9372 34.6774 10.6943C33.6698 9.89245 32.197 9.55834 30.8638 9.85236Z" fill="#FA3913"/>
<path d="M46.8323 7.31308C49.1732 6.92551 51.7311 7.48682 53.4829 8.90348C56.3354 11.1086 56.6455 15.2383 54.2116 17.7776C52.7388 19.3814 50.3514 20.2634 47.995 20.1699C45.7471 20.1164 43.5302 19.1542 42.197 17.5638C40.6932 15.813 40.3677 13.4074 41.2203 11.3626C42.073 9.27769 44.3054 7.68729 46.8323 7.31308ZM47.2974 9.85237C46.4602 10.0395 45.6851 10.4538 45.127 11.0285C43.6387 12.552 43.7008 15.0379 45.2975 16.4946C46.2432 17.3633 47.7159 17.791 49.0802 17.5504C50.2894 17.3499 51.3746 16.655 51.9637 15.7195C52.9713 14.1157 52.6768 11.9239 51.0955 10.681C50.0879 9.8791 48.6151 9.55834 47.2974 9.85237Z" fill="#FCBD06"/>
<path d="M60.7699 8.08822C62.5527 7.12596 64.9246 6.85867 66.847 7.68728C67.4516 7.91448 67.9476 8.30205 68.4282 8.68963C68.4437 8.32878 68.4282 7.95457 68.4437 7.58036C69.4824 7.59373 70.5211 7.58036 71.5753 7.59373V19.3814C71.5598 21.1589 71.0327 23.0433 69.5444 24.3396C67.9166 25.7697 65.4207 26.2107 63.1728 25.9167C60.7699 25.6093 58.677 24.0991 57.7469 22.1879C58.677 21.8004 59.6537 21.493 60.6149 21.1321C61.1575 22.228 62.2582 23.1635 63.6379 23.3774C65.0176 23.5912 66.6144 23.2972 67.5136 22.3082C68.4747 21.2925 68.4747 19.9026 68.4282 18.6597C67.7151 19.2611 66.8935 19.7957 65.9013 19.9961C63.7464 20.5173 61.3745 19.8758 59.7157 18.6196C58.0414 17.3633 57.0493 15.4254 57.1423 13.5009C57.1888 11.3225 58.615 9.22421 60.7699 8.08822ZM63.979 9.7989C63.0333 9.93254 62.1496 10.3869 61.545 11.0151C60.0878 12.5119 60.0878 14.9042 61.5605 16.3743C62.3977 17.243 63.7464 17.7241 65.0486 17.6039C66.2733 17.4969 67.405 16.8287 68.0097 15.9065C69.0328 14.3429 68.8623 12.2179 67.4826 10.8547C66.6299 10.0127 65.2657 9.59843 63.979 9.7989Z" fill="#3780FF"/>
<path d="M81.2499 8.76986C83.1102 7.27302 85.9782 6.76516 88.3656 7.55367C90.629 8.28873 92.0708 10.1464 92.7994 12.0576C89.4353 13.2604 86.0867 14.4498 82.7227 15.6527C83.1877 16.4144 83.9009 17.1094 84.862 17.3901C86.2108 17.8044 87.823 17.6574 88.9547 16.8822C89.4043 16.5882 89.7609 16.2006 90.1019 15.8264C90.9546 16.3209 91.8072 16.802 92.6599 17.2965C91.4507 18.8602 89.4198 19.9561 87.2339 20.1298C84.8155 20.3837 82.2421 19.5819 80.6763 17.9514C78.1029 15.3854 78.3509 11.0819 81.2499 8.76986ZM82.9087 11.2423C82.3816 11.8972 82.1646 12.6991 82.1801 13.4876C84.428 12.6857 86.6758 11.8838 88.9237 11.0686C88.5517 10.3202 87.6525 9.86576 86.7379 9.74548C85.2651 9.51828 83.7303 10.1999 82.9087 11.2423Z" fill="#FA3913"/>
</g>
<defs>
<clipPath id="clip0_0_34">
<rect width="92.4" height="26" fill="white" transform="translate(0.399994)"/>
</clipPath>
</defs>
</svg>
