<svg width="93" height="26" viewBox="0 0 93 26" fill="none" xmlns="http://www.w3.org/2000/svg">
<g clip-path="url(#clip0_0_49)">
<path d="M68.6733 1.8625C68.6733 0.834409 69.4781 0 70.4703 0H91.1898C92.1823 0 92.9868 0.834409 92.9868 1.8625V24.1378C92.9868 25.1663 92.1823 26 91.1898 26H70.4703C69.4781 26 68.6733 25.1663 68.6733 24.1382V1.8625Z" fill="#006699"/>
<path d="M0.61377 21.7789H10.7604V18.2387H4.2864V4.73366H0.61377V21.7789ZM15.8976 21.7789V10.0385H12.2253V21.7789H15.8976ZM14.0618 8.43582C15.3422 8.43582 16.1393 7.53423 16.1393 6.40691C16.1155 5.25504 15.3422 4.37903 14.0862 4.37903C12.8299 4.37903 12.0084 5.25538 12.0084 6.40691C12.0084 7.53423 12.8055 8.43582 14.0377 8.43582H14.0618ZM17.6025 21.7789H21.2748V15.2223C21.2748 14.8714 21.2986 14.5205 21.3958 14.2705C21.6609 13.5695 22.2651 12.8431 23.2798 12.8431C24.6089 12.8431 25.1407 13.92 25.1407 15.4974V21.7785H28.8123V15.047C28.8123 11.4406 27.0006 9.76262 24.5842 9.76262C22.6033 9.76262 21.7334 10.9394 21.2501 11.7411H21.2748V10.0385H17.6025C17.651 11.1402 17.6025 21.7789 17.6025 21.7789ZM33.9932 4.73366H30.3208V21.7789H33.9932V17.9724L34.9109 16.7444L37.7861 21.7789H42.3037L37.4723 14.4908L41.6997 9.53279H37.2791C37.2791 9.53279 34.2592 13.9684 33.9932 14.4949V4.73366Z" fill="black"/>
<path d="M52.1229 16.8815C52.1713 16.5801 52.2438 16.0018 52.2438 15.3478C52.2438 12.3129 50.794 9.23171 46.977 9.23171C42.894 9.23171 41.0093 12.6631 41.0093 15.7754C41.0093 19.6245 43.3047 22.0281 47.3149 22.0281C48.9098 22.0281 50.383 21.7785 51.5915 21.2524L51.1082 18.6752C50.1173 19.0243 49.1026 19.1993 47.8466 19.1993C46.1314 19.1993 44.6338 18.4508 44.5129 16.8563L52.1229 16.8809V16.8815ZM44.4888 14.2416C44.5854 13.2397 45.214 11.7615 46.7842 11.7615C48.4509 11.7615 48.8379 13.3396 48.8379 14.2416H44.4888ZM61.3081 4.73368V10.6342H61.2597C60.728 9.80833 59.6167 9.25729 58.1438 9.25729C55.3167 9.25729 52.8285 11.6613 52.8523 15.7682C52.8523 19.575 55.0995 22.0544 57.9015 22.0544C59.4238 22.0544 60.873 21.3526 61.5982 20.0003H61.6704L61.8158 21.7789H65.077C65.0289 20.9523 64.9801 19.5249 64.9801 18.1224V4.73334H61.3078L61.3081 4.73368ZM61.3081 16.3445C61.3081 16.6445 61.2841 16.9456 61.2353 17.1952C61.0187 18.2728 60.1487 19.0233 59.0856 19.0233C57.5639 19.0233 56.573 17.7214 56.573 15.6679C56.573 13.74 57.4192 12.1871 59.11 12.1871C60.2453 12.1871 61.0424 13.0133 61.26 14.0397C61.3081 14.2658 61.3081 14.5164 61.3081 14.7415V16.3445Z" fill="black"/>
<path d="M76.0435 21.7645V10.0241H72.3712V21.7645H76.0435ZM74.208 8.42147C75.4884 8.42147 76.2855 7.51989 76.2855 6.39325C76.2614 5.24104 75.4884 4.36469 74.2324 4.36469C72.9754 4.36469 72.1546 5.24104 72.1546 6.39325C72.1546 7.51989 72.9514 8.42147 74.1839 8.42147H74.2077H74.208ZM78.0761 21.7645H81.748V15.2089C81.748 14.8584 81.7721 14.5072 81.869 14.2569C82.1344 13.5555 82.7387 12.8295 83.7533 12.8295C85.0818 12.8295 85.6135 13.906 85.6135 15.4845V21.7645H89.2855V15.033C89.2855 11.427 87.4741 9.74896 85.0581 9.74896C83.0772 9.74896 82.2072 10.9254 81.724 11.7267H81.7484V10.0245H78.0764C78.1242 11.1259 78.0761 21.7645 78.0761 21.7645Z" fill="white"/>
</g>
<defs>
<clipPath id="clip0_0_49">
<rect width="92.4" height="26" fill="white" transform="translate(0.600037)"/>
</clipPath>
</defs>
</svg>
