<svg width="52" height="52" viewBox="0 0 52 52" fill="none" xmlns="http://www.w3.org/2000/svg">
<path d="M49.0019 40.9581L42.4044 34.3606C42.2696 34.228 42.0929 34.1465 41.9045 34.1302C41.7162 34.1139 41.528 34.1638 41.3725 34.2713L33.2475 39.9019C33.1494 39.9695 33.0674 40.0578 33.0073 40.1606C32.9471 40.2634 32.9104 40.3782 32.8995 40.4968C32.8886 40.6154 32.904 40.735 32.9445 40.847C32.985 40.959 33.0496 41.0607 33.1337 41.145L40.9906 49.0019C41.0945 49.1064 41.2248 49.1807 41.3677 49.2168C41.5105 49.2529 41.6605 49.2495 41.8016 49.2069C41.9426 49.1644 42.0695 49.0842 42.1685 48.9751C42.2675 48.866 42.335 48.732 42.3637 48.5875L43.4119 43.3794L48.5875 42.3313C48.732 42.3025 48.866 42.235 48.9751 42.136C49.0842 42.037 49.1643 41.9102 49.2069 41.7691C49.2495 41.628 49.2529 41.4781 49.2168 41.3352C49.1806 41.1924 49.1064 41.062 49.0019 40.9581Z" fill="url(#paint0_linear_0_234)"/>
<path d="M18.785 39.9019L10.66 34.2713C10.5044 34.1638 10.3163 34.1139 10.128 34.1302C9.9396 34.1465 9.76284 34.228 9.6281 34.3606L2.9981 40.9581C2.89361 41.062 2.81933 41.1924 2.78321 41.3352C2.74709 41.4781 2.7505 41.628 2.79307 41.7691C2.83564 41.9102 2.91577 42.037 3.02487 42.136C3.13398 42.235 3.26796 42.3025 3.41248 42.3313L8.6206 43.3794L9.66873 48.5875C9.69746 48.732 9.76495 48.866 9.86398 48.9751C9.963 49.0842 10.0898 49.1644 10.2309 49.2069C10.372 49.2495 10.5219 49.2529 10.6648 49.2168C10.8076 49.1807 10.938 49.1064 11.0419 49.0019L18.8987 41.145C18.9829 41.0607 19.0475 40.959 19.088 40.847C19.1285 40.735 19.1438 40.6154 19.133 40.4968C19.1221 40.3782 19.0853 40.2634 19.0252 40.1606C18.965 40.0578 18.883 39.9695 18.785 39.9019Z" fill="url(#paint1_linear_0_234)"/>
<path d="M47.9375 24.375C47.9375 22.3275 44.4437 21.19 44.2244 20.215C44.005 19.24 46.6619 16.6644 45.7681 14.8525C44.8744 13.0407 41.2588 13.5363 40.625 12.7238C39.9912 11.9113 41.2913 8.49879 39.6987 7.22316C38.1063 5.94754 35.0675 7.98691 34.125 7.53191C33.1825 7.07691 32.89 3.46941 30.875 2.98191C28.86 2.49441 27.0969 5.68753 26 5.68753C24.9031 5.68753 23.0669 2.54316 21.125 2.98191C19.1831 3.42066 18.8094 7.09316 17.875 7.53191C16.9406 7.97066 13.8938 5.95566 12.3013 7.22316C10.7088 8.49066 12.0169 11.9113 11.375 12.7238C10.7331 13.5363 7.10938 13 6.23187 14.8525C5.35438 16.705 8.01125 19.1832 7.77562 20.215C7.54 21.2469 4.0625 22.3194 4.0625 24.375C4.0625 26.4307 7.55625 27.56 7.77562 28.535C7.995 29.51 5.33812 32.0857 6.23187 33.8975C7.12563 35.7094 10.7413 35.2138 11.3913 36.0263C12.0413 36.8388 10.725 40.2513 12.3175 41.5269C13.91 42.8025 16.9488 40.7632 17.8913 41.2182C18.8338 41.6732 19.1263 45.2807 21.1413 45.7682C23.1562 46.2557 24.9031 43.0625 26 43.0625C26.9263 43.0625 28.7788 45.8088 30.485 45.8088C30.6188 45.811 30.7525 45.7973 30.8831 45.7682C32.8656 45.3132 33.1987 41.6569 34.1331 41.2182C35.0675 40.7794 38.1144 42.7944 39.7069 41.5269C41.2994 40.2594 39.9912 36.8388 40.6331 36.0263C41.275 35.2138 44.915 35.7175 45.7925 33.8975C46.67 32.0775 44.0131 29.5669 44.2487 28.535C44.4844 27.5032 47.9375 26.4307 47.9375 24.375Z" fill="url(#paint2_linear_0_234)"/>
<path d="M26 39.8125C34.5259 39.8125 41.4375 32.9009 41.4375 24.375C41.4375 15.8491 34.5259 8.9375 26 8.9375C17.4741 8.9375 10.5625 15.8491 10.5625 24.375C10.5625 32.9009 17.4741 39.8125 26 39.8125Z" fill="url(#paint3_linear_0_234)"/>
<path d="M34.2388 20.9381L29.0469 20.1825L26.7313 15.4781C26.6647 15.3407 26.5609 15.2249 26.4315 15.1438C26.3022 15.0628 26.1527 15.0198 26 15.0198C25.8474 15.0198 25.6978 15.0628 25.5685 15.1438C25.4392 15.2249 25.3353 15.3407 25.2688 15.4781L22.9531 20.1825L17.7613 20.9381C17.6118 20.9598 17.4713 21.0228 17.3557 21.1199C17.24 21.217 17.1537 21.3445 17.1064 21.488C17.0591 21.6314 17.0528 21.7852 17.0881 21.9321C17.1234 22.0789 17.199 22.2131 17.3063 22.3194L21.0681 26L20.1744 31.1675C20.1467 31.3183 20.1622 31.4738 20.2191 31.6162C20.276 31.7585 20.3721 31.8818 20.4961 31.9719C20.6202 32.062 20.7672 32.1151 20.9202 32.1252C21.0732 32.1352 21.2259 32.1018 21.3606 32.0287L26 29.5912L30.6394 32.0287C30.7742 32.1018 30.9269 32.1352 31.0799 32.1252C31.2328 32.1151 31.3798 32.062 31.5039 31.9719C31.6279 31.8818 31.724 31.7585 31.7809 31.6162C31.8379 31.4738 31.8534 31.3183 31.8256 31.1675L30.9319 26L34.6938 22.3356C34.8059 22.23 34.8857 22.0947 34.9239 21.9454C34.962 21.7961 34.957 21.6391 34.9093 21.4926C34.8616 21.3462 34.7732 21.2162 34.6545 21.1181C34.5358 21.0199 34.3916 20.9575 34.2388 20.9381Z" fill="#B2500D"/>
<defs>
<linearGradient id="paint0_linear_0_234" x1="37.1231" y1="36.7656" x2="45.0206" y2="45.3863" gradientUnits="userSpaceOnUse">
<stop stop-color="#007EE5"/>
<stop offset="1" stop-color="#1174AC"/>
</linearGradient>
<linearGradient id="paint1_linear_0_234" x1="15.08" y1="36.205" x2="7.57248" y2="45.0125" gradientUnits="userSpaceOnUse">
<stop stop-color="#007EE5"/>
<stop offset="1" stop-color="#1174AC"/>
</linearGradient>
<linearGradient id="paint2_linear_0_234" x1="26" y1="2.94129" x2="26" y2="45.8088" gradientUnits="userSpaceOnUse">
<stop stop-color="#CE7F20"/>
<stop offset="1" stop-color="#B2500D"/>
</linearGradient>
<linearGradient id="paint3_linear_0_234" x1="26" y1="8.9375" x2="26" y2="39.8125" gradientUnits="userSpaceOnUse">
<stop stop-color="#FFC033"/>
<stop offset="1" stop-color="#EF8E2E"/>
</linearGradient>
</defs>
</svg>
