<svg width="94" height="26" viewBox="0 0 94 26" fill="none" xmlns="http://www.w3.org/2000/svg">
<g clip-path="url(#clip0_0_41)">
<path d="M79.665 24.3465C80.9514 24.4758 82.2371 24.6148 83.5198 24.7586L86.3519 17.503L89.0438 25.4278C90.4251 25.6074 91.8057 25.7959 93.182 25.9927L88.4625 12.0958L93.1835 -0.000323354H89.1852L89.1436 0.0590965L86.5933 6.59368L84.3543 0.00063503H80.4064L84.482 12.0012L79.6653 24.3465H79.665ZM76.6793 24.0621V-0.000323354H72.733V23.7245C74.0492 23.8299 75.3661 23.9433 76.6793 24.0621ZM47.0349 22.7166C48.1002 22.7166 49.1643 22.7249 50.2266 22.7338V13.8937H54.9673V10.1292H50.2269V3.76868H55.6868V-0.000323354H46.2651V22.7198C46.521 22.7198 46.7781 22.7156 47.0349 22.7166ZM34.7824 22.9466C36.0971 22.898 37.4131 22.8571 38.7309 22.8239V3.76932H42.4195V0.00063503H31.0938V3.76932H34.783V22.9466H34.7824ZM4.60103 25.4838V11.1479L9.27369 24.9049C10.7106 24.7375 12.1498 24.58 13.5929 24.4311V-3.89258e-06H9.80635V14.8495L4.76422 -3.89258e-06H0.81543V25.999H0.839138C2.09013 25.8195 3.34543 25.6489 4.60103 25.4838ZM27.2885 3.76836V-3.89258e-06H17.8659V24.0238C21.0009 23.743 24.1395 23.5076 27.2808 23.3175V19.5456C25.4593 19.6555 23.6414 19.782 21.8279 19.9229V13.8953H26.5686V10.1285H21.8279V3.76836H27.2885ZM63.5077 19.3654V-0.00128174H59.5442V22.9603C62.697 23.0804 65.8376 23.2478 68.9677 23.4587V19.6846C67.1511 19.5629 65.3314 19.4574 63.5077 19.3654Z" fill="#B81D24"/>
</g>
<defs>
<clipPath id="clip0_0_41">
<rect width="92.4" height="26" fill="white" transform="translate(0.799988)"/>
</clipPath>
</defs>
</svg>
