<svg width="55" height="53" viewBox="0 0 55 53" fill="none" xmlns="http://www.w3.org/2000/svg">
<g clip-path="url(#clip0_0_185)">
<mask id="mask0_0_185" style="mask-type:luminance" maskUnits="userSpaceOnUse" x="0" y="0" width="55" height="53">
<path d="M0 0.5H55V52.3443H0V0.5Z" fill="white"/>
</mask>
<g mask="url(#mask0_0_185)">
<g filter="url(#filter0_d_0_185)">
<path d="M26.7905 10.9053C21.3262 15.8497 16.0217 23.5332 14.5313 27.3402C17.6466 28.5659 21.0003 33.585 22.2984 35.3491C33.3538 30.8168 37.1216 26.5487 42.0104 21.6514C46.6893 16.9644 51.0205 6.6622 51.0205 1.29503C42.7996 0.238312 34.1452 4.25042 26.7905 10.9053Z" fill="#007EE5" stroke="#1D9393" stroke-width="1.058"/>
<path d="M36.786 18.8489C39.8781 18.8489 42.3847 16.4283 42.3847 13.4422C42.3847 10.4562 39.8781 8.03552 36.786 8.03552C33.6939 8.03552 31.1873 10.4562 31.1873 13.4422C31.1873 16.4283 33.6939 18.8489 36.786 18.8489Z" fill="white"/>
<path d="M47.4599 13.4419C47.3977 10.738 40.8489 5.7558 37.5823 3.60268C41.78 1.41855 48.3436 0.79447 51.0498 1.28205C51.112 4.22629 49.0504 10.819 47.4599 13.4419Z" fill="#CB0D05" stroke="#CB0D05" stroke-width="1.058"/>
<path d="M28.9599 38.4199V32.054L37.7493 25.9239V30.8751L28.9599 38.4199ZM19.0722 12.3693H24.8096L18.3397 20.5035H10.0386L19.0722 12.3693Z" fill="#062665" stroke="#062665" stroke-width="1.058"/>
<path d="M11.7475 32.9753L3.69081 42.5477C5.54591 40.6614 15.0863 33.9108 15.776 32.268C16.7261 30.0049 14.1703 30.2317 11.7475 32.9753ZM14.0104 35.6873L5.9535 45.2596C7.8091 43.3733 17.3492 36.6228 18.0389 34.98C18.989 32.7169 16.4332 32.9436 14.0104 35.6873ZM21.2657 33.8144C20.2085 32.0484 17.0004 28.8183 15.3714 27.8204C15.3714 30.4083 18.0689 31.1057 18.0689 31.5416C18.0689 32.0829 22.286 35.5186 21.2657 33.8144Z" fill="#FE7805" stroke="#FE7805" stroke-width="1.058"/>
<path d="M36.7855 16.9658C38.802 16.9658 40.4367 15.387 40.4367 13.4395C40.4367 11.492 38.802 9.91321 36.7855 9.91321C34.769 9.91321 33.1343 11.492 33.1343 13.4395C33.1343 15.387 34.769 16.9658 36.7855 16.9658Z" fill="black"/>
<path d="M29.1892 25.9268C31.608 25.9268 33.5689 24.0333 33.5689 21.6976C33.5689 19.3619 31.608 17.4685 29.1892 17.4685C26.7703 17.4685 24.8094 19.3619 24.8094 21.6976C24.8094 24.0333 26.7703 25.9268 29.1892 25.9268Z" fill="white"/>
<path d="M29.1892 24.4553C30.7667 24.4553 32.0456 23.2204 32.0456 21.6972C32.0456 20.1739 30.7667 18.9391 29.1892 18.9391C27.6116 18.9391 26.3328 20.1739 26.3328 21.6972C26.3328 23.2204 27.6116 24.4553 29.1892 24.4553Z" fill="black"/>
<path d="M23.4588 30.7267C25.3454 30.7267 26.8747 29.2498 26.8747 27.428C26.8747 25.6062 25.3454 24.1294 23.4588 24.1294C21.5723 24.1294 20.043 25.6062 20.043 27.428C20.043 29.2498 21.5723 30.7267 23.4588 30.7267Z" fill="white"/>
<path d="M23.4593 29.5802C24.6897 29.5802 25.6872 28.617 25.6872 27.4289C25.6872 26.2407 24.6897 25.2776 23.4593 25.2776C22.2288 25.2776 21.2313 26.2407 21.2313 27.4289C21.2313 28.617 22.2288 29.5802 23.4593 29.5802Z" fill="black"/>
</g>
</g>
</g>
<defs>
<filter id="filter0_d_0_185" x="-4.01193" y="0.597168" width="62.8901" height="59.6294" filterUnits="userSpaceOnUse" color-interpolation-filters="sRGB">
<feFlood flood-opacity="0" result="BackgroundImageFix"/>
<feColorMatrix in="SourceAlpha" type="matrix" values="0 0 0 0 0 0 0 0 0 0 0 0 0 0 0 0 0 0 127 0" result="hardAlpha"/>
<feOffset dy="7.298"/>
<feGaussianBlur stdDeviation="3.649"/>
<feColorMatrix type="matrix" values="0 0 0 0 0 0 0 0 0 0 0 0 0 0 0 0 0 0 0.25 0"/>
<feBlend mode="normal" in2="BackgroundImageFix" result="effect1_dropShadow_0_185"/>
<feBlend mode="normal" in="SourceGraphic" in2="effect1_dropShadow_0_185" result="shape"/>
</filter>
<clipPath id="clip0_0_185">
<rect width="55" height="52" fill="white" transform="matrix(-1 0 0 1 55 0.5)"/>
</clipPath>
</defs>
</svg>
