<svg width="65" height="241" viewBox="0 0 65 241" fill="none" xmlns="http://www.w3.org/2000/svg">
<ellipse cx="3.12125" cy="102.742" rx="3.25817" ry="3.12125" transform="rotate(-90 3.12125 102.742)" fill="#B6DCFF" fill-opacity="0.3"/>
<ellipse cx="3.12125" cy="222.742" rx="3.25817" ry="3.12125" transform="rotate(-90 3.12125 222.742)" fill="#B6DCFF" fill-opacity="0.3"/>
<ellipse cx="41.9117" cy="107.742" rx="3.25817" ry="3.12125" transform="rotate(-90 41.9117 107.742)" fill="#B6DCFF" fill-opacity="0.3"/>
<ellipse cx="41.9117" cy="227.742" rx="3.25817" ry="3.12125" transform="rotate(-90 41.9117 227.742)" fill="#B6DCFF" fill-opacity="0.3"/>
<ellipse cx="22.8584" cy="47.7418" rx="3.25817" ry="3.12125" transform="rotate(-90 22.8584 47.7418)" fill="#B6DCFF" fill-opacity="0.3"/>
<ellipse cx="22.8584" cy="167.742" rx="3.25817" ry="3.12125" transform="rotate(-90 22.8584 167.742)" fill="#B6DCFF" fill-opacity="0.3"/>
<ellipse cx="42.0266" cy="87.7418" rx="3.25817" ry="3.12125" transform="rotate(-90 42.0266 87.7418)" fill="#B6DCFF" fill-opacity="0.3"/>
<ellipse cx="42.0266" cy="207.742" rx="3.25817" ry="3.12125" transform="rotate(-90 42.0266 207.742)" fill="#B6DCFF" fill-opacity="0.3"/>
<ellipse cx="22.9723" cy="27.7418" rx="3.25817" ry="3.12125" transform="rotate(-90 22.9723 27.7418)" fill="#B6DCFF" fill-opacity="0.3"/>
<ellipse cx="22.9723" cy="147.742" rx="3.25817" ry="3.12125" transform="rotate(-90 22.9723 147.742)" fill="#B6DCFF" fill-opacity="0.3"/>
<ellipse cx="3.46378" cy="42.7418" rx="3.25817" ry="3.12125" transform="rotate(-90 3.46378 42.7418)" fill="#B6DCFF" fill-opacity="0.3"/>
<ellipse cx="3.46378" cy="162.742" rx="3.25817" ry="3.12125" transform="rotate(-90 3.46378 162.742)" fill="#B6DCFF" fill-opacity="0.3"/>
<ellipse cx="42.2546" cy="52.7418" rx="3.25817" ry="3.12125" transform="rotate(-90 42.2546 52.7418)" fill="#B6DCFF" fill-opacity="0.3"/>
<ellipse cx="42.2546" cy="172.742" rx="3.25817" ry="3.12125" transform="rotate(-90 42.2546 172.742)" fill="#B6DCFF" fill-opacity="0.3"/>
<ellipse cx="61.6508" cy="57.7418" rx="3.25817" ry="3.12125" transform="rotate(-90 61.6508 57.7418)" fill="#B6DCFF" fill-opacity="0.3"/>
<ellipse cx="61.6508" cy="177.742" rx="3.25817" ry="3.12125" transform="rotate(-90 61.6508 177.742)" fill="#B6DCFF" fill-opacity="0.3"/>
<ellipse cx="22.5111" cy="112.742" rx="3.25817" ry="3.12125" transform="rotate(-90 22.5111 112.742)" fill="#B6DCFF" fill-opacity="0.3"/>
<ellipse cx="22.5111" cy="232.742" rx="3.25817" ry="3.12125" transform="rotate(-90 22.5111 232.742)" fill="#B6DCFF" fill-opacity="0.3"/>
<ellipse cx="3.57755" cy="22.7418" rx="3.25817" ry="3.12125" transform="rotate(-90 3.57755 22.7418)" fill="#B6DCFF" fill-opacity="0.3"/>
<ellipse cx="3.57755" cy="142.742" rx="3.25817" ry="3.12125" transform="rotate(-90 3.57755 142.742)" fill="#B6DCFF" fill-opacity="0.3"/>
<ellipse cx="61.3024" cy="117.742" rx="3.25817" ry="3.12125" transform="rotate(-90 61.3024 117.742)" fill="#B6DCFF" fill-opacity="0.3"/>
<ellipse cx="61.3024" cy="237.742" rx="3.25817" ry="3.12125" transform="rotate(-90 61.3024 237.742)" fill="#B6DCFF" fill-opacity="0.3"/>
<ellipse cx="3.23563" cy="82.7418" rx="3.25817" ry="3.12125" transform="rotate(-90 3.23563 82.7418)" fill="#B6DCFF" fill-opacity="0.3"/>
<ellipse cx="3.23563" cy="202.742" rx="3.25817" ry="3.12125" transform="rotate(-90 3.23563 202.742)" fill="#B6DCFF" fill-opacity="0.3"/>
<ellipse cx="42.3693" cy="32.7418" rx="3.25817" ry="3.12125" transform="rotate(-90 42.3693 32.7418)" fill="#B6DCFF" fill-opacity="0.3"/>
<ellipse cx="42.3693" cy="152.742" rx="3.25817" ry="3.12125" transform="rotate(-90 42.3693 152.742)" fill="#B6DCFF" fill-opacity="0.3"/>
<ellipse cx="61.7646" cy="37.7418" rx="3.25817" ry="3.12125" transform="rotate(-90 61.7646 37.7418)" fill="#B6DCFF" fill-opacity="0.3"/>
<ellipse cx="61.7646" cy="157.742" rx="3.25817" ry="3.12125" transform="rotate(-90 61.7646 157.742)" fill="#B6DCFF" fill-opacity="0.3"/>
<ellipse cx="22.6255" cy="92.7418" rx="3.25817" ry="3.12125" transform="rotate(-90 22.6255 92.7418)" fill="#B6DCFF" fill-opacity="0.3"/>
<ellipse cx="22.6255" cy="212.742" rx="3.25817" ry="3.12125" transform="rotate(-90 22.6255 212.742)" fill="#B6DCFF" fill-opacity="0.3"/>
<ellipse cx="61.4158" cy="97.7418" rx="3.25817" ry="3.12125" transform="rotate(-90 61.4158 97.7418)" fill="#B6DCFF" fill-opacity="0.3"/>
<ellipse cx="61.4158" cy="217.742" rx="3.25817" ry="3.12125" transform="rotate(-90 61.4158 217.742)" fill="#B6DCFF" fill-opacity="0.3"/>
<ellipse cx="3.34916" cy="62.7418" rx="3.25817" ry="3.12125" transform="rotate(-90 3.34916 62.7418)" fill="#B6DCFF" fill-opacity="0.3"/>
<ellipse cx="3.34916" cy="182.742" rx="3.25817" ry="3.12125" transform="rotate(-90 3.34916 182.742)" fill="#B6DCFF" fill-opacity="0.3"/>
<ellipse cx="42.1404" cy="67.7418" rx="3.25817" ry="3.12125" transform="rotate(-90 42.1404 67.7418)" fill="#B6DCFF" fill-opacity="0.3"/>
<ellipse cx="42.1404" cy="187.742" rx="3.25817" ry="3.12125" transform="rotate(-90 42.1404 187.742)" fill="#B6DCFF" fill-opacity="0.3"/>
<ellipse cx="3.6912" cy="3.25818" rx="3.25817" ry="3.12125" transform="rotate(-90 3.6912 3.25818)" fill="#B6DCFF" fill-opacity="0.3"/>
<ellipse cx="3.6912" cy="122.742" rx="3.25817" ry="3.12125" transform="rotate(-90 3.6912 122.742)" fill="#B6DCFF" fill-opacity="0.3"/>
<ellipse cx="42.4825" cy="12.7418" rx="3.25817" ry="3.12125" transform="rotate(-90 42.4825 12.7418)" fill="#B6DCFF" fill-opacity="0.3"/>
<ellipse cx="42.4825" cy="132.742" rx="3.25817" ry="3.12125" transform="rotate(-90 42.4825 132.742)" fill="#B6DCFF" fill-opacity="0.3"/>
<ellipse cx="23.0872" cy="7.74183" rx="3.25817" ry="3.12125" transform="rotate(-90 23.0872 7.74183)" fill="#B6DCFF" fill-opacity="0.3"/>
<ellipse cx="23.0872" cy="127.742" rx="3.25817" ry="3.12125" transform="rotate(-90 23.0872 127.742)" fill="#B6DCFF" fill-opacity="0.3"/>
<ellipse cx="61.8789" cy="17.7418" rx="3.25817" ry="3.12125" transform="rotate(-90 61.8789 17.7418)" fill="#B6DCFF" fill-opacity="0.3"/>
<ellipse cx="61.8789" cy="137.742" rx="3.25817" ry="3.12125" transform="rotate(-90 61.8789 137.742)" fill="#B6DCFF" fill-opacity="0.3"/>
<ellipse cx="22.7391" cy="72.7418" rx="3.25817" ry="3.12125" transform="rotate(-90 22.7391 72.7418)" fill="#B6DCFF" fill-opacity="0.3"/>
<ellipse cx="22.7391" cy="192.742" rx="3.25817" ry="3.12125" transform="rotate(-90 22.7391 192.742)" fill="#B6DCFF" fill-opacity="0.3"/>
<ellipse cx="61.5306" cy="77.7418" rx="3.25817" ry="3.12125" transform="rotate(-90 61.5306 77.7418)" fill="#B6DCFF" fill-opacity="0.3"/>
<ellipse cx="61.5306" cy="197.742" rx="3.25817" ry="3.12125" transform="rotate(-90 61.5306 197.742)" fill="#B6DCFF" fill-opacity="0.3"/>
</svg>
