<svg width="65" height="240" viewBox="0 0 65 240" fill="none" xmlns="http://www.w3.org/2000/svg">
<ellipse cx="3.12125" cy="101.742" rx="3.25817" ry="3.12125" transform="rotate(-90 3.12125 101.742)" fill="#D1673A" fill-opacity="0.3"/>
<ellipse cx="3.12125" cy="221.742" rx="3.25817" ry="3.12125" transform="rotate(-90 3.12125 221.742)" fill="#D1673A" fill-opacity="0.3"/>
<ellipse cx="41.9117" cy="106.742" rx="3.25817" ry="3.12125" transform="rotate(-90 41.9117 106.742)" fill="#D1673A" fill-opacity="0.3"/>
<ellipse cx="41.9117" cy="226.742" rx="3.25817" ry="3.12125" transform="rotate(-90 41.9117 226.742)" fill="#D1673A" fill-opacity="0.3"/>
<ellipse cx="22.8584" cy="47.7418" rx="3.25817" ry="3.12125" transform="rotate(-90 22.8584 47.7418)" fill="#D1673A" fill-opacity="0.3"/>
<ellipse cx="22.8584" cy="166.742" rx="3.25817" ry="3.12125" transform="rotate(-90 22.8584 166.742)" fill="#D1673A" fill-opacity="0.3"/>
<ellipse cx="42.0266" cy="86.7418" rx="3.25817" ry="3.12125" transform="rotate(-90 42.0266 86.7418)" fill="#D1673A" fill-opacity="0.3"/>
<ellipse cx="42.0266" cy="206.742" rx="3.25817" ry="3.12125" transform="rotate(-90 42.0266 206.742)" fill="#D1673A" fill-opacity="0.3"/>
<ellipse cx="22.9723" cy="27.7418" rx="3.25817" ry="3.12125" transform="rotate(-90 22.9723 27.7418)" fill="#D1673A" fill-opacity="0.3"/>
<ellipse cx="22.9723" cy="146.742" rx="3.25817" ry="3.12125" transform="rotate(-90 22.9723 146.742)" fill="#D1673A" fill-opacity="0.3"/>
<ellipse cx="3.46378" cy="42.7418" rx="3.25817" ry="3.12125" transform="rotate(-90 3.46378 42.7418)" fill="#D1673A" fill-opacity="0.3"/>
<ellipse cx="3.46378" cy="161.742" rx="3.25817" ry="3.12125" transform="rotate(-90 3.46378 161.742)" fill="#D1673A" fill-opacity="0.3"/>
<ellipse cx="42.2546" cy="52.7418" rx="3.25817" ry="3.12125" transform="rotate(-90 42.2546 52.7418)" fill="#D1673A" fill-opacity="0.3"/>
<ellipse cx="42.2546" cy="171.742" rx="3.25817" ry="3.12125" transform="rotate(-90 42.2546 171.742)" fill="#D1673A" fill-opacity="0.3"/>
<ellipse cx="61.6508" cy="56.7418" rx="3.25817" ry="3.12125" transform="rotate(-90 61.6508 56.7418)" fill="#D1673A" fill-opacity="0.3"/>
<ellipse cx="61.6508" cy="176.742" rx="3.25817" ry="3.12125" transform="rotate(-90 61.6508 176.742)" fill="#D1673A" fill-opacity="0.3"/>
<ellipse cx="22.5111" cy="111.742" rx="3.25817" ry="3.12125" transform="rotate(-90 22.5111 111.742)" fill="#D1673A" fill-opacity="0.3"/>
<ellipse cx="22.5111" cy="231.742" rx="3.25817" ry="3.12125" transform="rotate(-90 22.5111 231.742)" fill="#D1673A" fill-opacity="0.3"/>
<ellipse cx="3.57755" cy="22.7418" rx="3.25817" ry="3.12125" transform="rotate(-90 3.57755 22.7418)" fill="#D1673A" fill-opacity="0.3"/>
<ellipse cx="3.57755" cy="141.742" rx="3.25817" ry="3.12125" transform="rotate(-90 3.57755 141.742)" fill="#D1673A" fill-opacity="0.3"/>
<ellipse cx="61.3024" cy="116.742" rx="3.25817" ry="3.12125" transform="rotate(-90 61.3024 116.742)" fill="#D1673A" fill-opacity="0.3"/>
<ellipse cx="61.3024" cy="236.742" rx="3.25817" ry="3.12125" transform="rotate(-90 61.3024 236.742)" fill="#D1673A" fill-opacity="0.3"/>
<ellipse cx="3.23563" cy="81.7418" rx="3.25817" ry="3.12125" transform="rotate(-90 3.23563 81.7418)" fill="#D1673A" fill-opacity="0.3"/>
<ellipse cx="3.23563" cy="201.742" rx="3.25817" ry="3.12125" transform="rotate(-90 3.23563 201.742)" fill="#D1673A" fill-opacity="0.3"/>
<ellipse cx="42.3693" cy="32.7418" rx="3.25817" ry="3.12125" transform="rotate(-90 42.3693 32.7418)" fill="#D1673A" fill-opacity="0.3"/>
<ellipse cx="42.3693" cy="151.742" rx="3.25817" ry="3.12125" transform="rotate(-90 42.3693 151.742)" fill="#D1673A" fill-opacity="0.3"/>
<ellipse cx="61.7646" cy="37.7418" rx="3.25817" ry="3.12125" transform="rotate(-90 61.7646 37.7418)" fill="#D1673A" fill-opacity="0.3"/>
<ellipse cx="61.7646" cy="156.742" rx="3.25817" ry="3.12125" transform="rotate(-90 61.7646 156.742)" fill="#D1673A" fill-opacity="0.3"/>
<ellipse cx="22.6255" cy="91.7418" rx="3.25817" ry="3.12125" transform="rotate(-90 22.6255 91.7418)" fill="#D1673A" fill-opacity="0.3"/>
<ellipse cx="22.6255" cy="211.742" rx="3.25817" ry="3.12125" transform="rotate(-90 22.6255 211.742)" fill="#D1673A" fill-opacity="0.3"/>
<ellipse cx="61.4158" cy="96.7418" rx="3.25817" ry="3.12125" transform="rotate(-90 61.4158 96.7418)" fill="#D1673A" fill-opacity="0.3"/>
<ellipse cx="61.4158" cy="216.742" rx="3.25817" ry="3.12125" transform="rotate(-90 61.4158 216.742)" fill="#D1673A" fill-opacity="0.3"/>
<ellipse cx="3.34916" cy="61.7418" rx="3.25817" ry="3.12125" transform="rotate(-90 3.34916 61.7418)" fill="#D1673A" fill-opacity="0.3"/>
<ellipse cx="3.34916" cy="181.742" rx="3.25817" ry="3.12125" transform="rotate(-90 3.34916 181.742)" fill="#D1673A" fill-opacity="0.3"/>
<ellipse cx="42.1404" cy="66.7418" rx="3.25817" ry="3.12125" transform="rotate(-90 42.1404 66.7418)" fill="#D1673A" fill-opacity="0.3"/>
<ellipse cx="42.1404" cy="186.742" rx="3.25817" ry="3.12125" transform="rotate(-90 42.1404 186.742)" fill="#D1673A" fill-opacity="0.3"/>
<ellipse cx="3.6912" cy="3.25818" rx="3.25817" ry="3.12125" transform="rotate(-90 3.6912 3.25818)" fill="#D1673A" fill-opacity="0.3"/>
<ellipse cx="3.6912" cy="121.742" rx="3.25817" ry="3.12125" transform="rotate(-90 3.6912 121.742)" fill="#D1673A" fill-opacity="0.3"/>
<ellipse cx="42.4825" cy="12.7418" rx="3.25817" ry="3.12125" transform="rotate(-90 42.4825 12.7418)" fill="#D1673A" fill-opacity="0.3"/>
<ellipse cx="42.4825" cy="131.742" rx="3.25817" ry="3.12125" transform="rotate(-90 42.4825 131.742)" fill="#D1673A" fill-opacity="0.3"/>
<ellipse cx="23.0872" cy="7.74183" rx="3.25817" ry="3.12125" transform="rotate(-90 23.0872 7.74183)" fill="#D1673A" fill-opacity="0.3"/>
<ellipse cx="23.0872" cy="126.742" rx="3.25817" ry="3.12125" transform="rotate(-90 23.0872 126.742)" fill="#D1673A" fill-opacity="0.3"/>
<ellipse cx="61.8789" cy="17.7418" rx="3.25817" ry="3.12125" transform="rotate(-90 61.8789 17.7418)" fill="#D1673A" fill-opacity="0.3"/>
<ellipse cx="61.8789" cy="136.742" rx="3.25817" ry="3.12125" transform="rotate(-90 61.8789 136.742)" fill="#D1673A" fill-opacity="0.3"/>
<ellipse cx="22.7391" cy="71.7418" rx="3.25817" ry="3.12125" transform="rotate(-90 22.7391 71.7418)" fill="#D1673A" fill-opacity="0.3"/>
<ellipse cx="22.7391" cy="191.742" rx="3.25817" ry="3.12125" transform="rotate(-90 22.7391 191.742)" fill="#D1673A" fill-opacity="0.3"/>
<ellipse cx="61.5306" cy="76.7418" rx="3.25817" ry="3.12125" transform="rotate(-90 61.5306 76.7418)" fill="#D1673A" fill-opacity="0.3"/>
<ellipse cx="61.5306" cy="196.742" rx="3.25817" ry="3.12125" transform="rotate(-90 61.5306 196.742)" fill="#D1673A" fill-opacity="0.3"/>
</svg>
