<svg width="93" height="26" viewBox="0 0 93 26" fill="none" xmlns="http://www.w3.org/2000/svg">
<g clip-path="url(#clip0_0_28)">
<path d="M29.1302 20.5734L30.2579 17.6068C31.4926 18.6359 33.103 19.1806 34.7139 19.1806C35.8951 19.1806 36.6466 18.6663 36.6466 17.8793C36.6196 15.6997 29.5329 17.3949 29.479 11.9149C29.4521 9.12991 31.6535 6.98058 34.7678 6.98058C36.6196 6.98058 38.4723 7.49538 39.7874 8.67621L38.7337 11.7061C37.5236 10.8303 36.029 10.2197 34.6065 10.2197C33.6401 10.2197 32.9956 10.7341 32.9956 11.4006C33.0226 13.5499 40.1636 12.3691 40.244 17.6068C40.244 20.4525 38.0961 22.4506 35.0357 22.4506C32.7812 22.4506 30.7145 21.8452 29.1302 20.5734ZM74.032 16.5325C73.7473 17.1018 73.3333 17.5756 72.8323 17.9053C72.3313 18.235 71.7614 18.4088 71.1811 18.4089C69.3723 18.4089 67.9062 16.7553 67.9062 14.7156C67.9062 12.6759 69.3723 11.0223 71.1811 11.0223C71.7614 11.0223 72.3313 11.1961 72.8323 11.5258C73.3333 11.8556 73.7473 12.3294 74.032 12.8986L77.167 10.9399C75.9928 8.57784 73.7529 6.98058 71.1811 6.98058C67.393 6.98058 64.3223 10.4433 64.3223 14.7156C64.3223 18.9874 67.393 22.4506 71.1811 22.4506C73.7529 22.4506 75.9928 20.8533 77.167 18.4912L74.032 16.5325ZM42.2784 22.1477H46.1977V0.541687H42.2787L42.2784 22.1477ZM79.1463 0.541687V22.1477H83.0656V15.6745L87.7099 22.1477H92.7195L86.8136 14.4577L92.2898 7.28218H87.495L83.0656 13.2479V0.541687H79.1463ZM58.2724 7.28304V9.03934C57.6283 7.82818 56.0444 6.98058 54.3801 6.98058C50.9439 6.98058 48.2328 10.4017 48.2328 14.7004C48.2328 18.9991 50.9439 22.4506 54.3801 22.4506C56.0444 22.4506 57.6283 21.603 58.2724 20.3918V22.1477H62.1917V7.28304H58.2724ZM58.2724 16.5624C57.7088 17.6219 56.5276 18.4084 55.2124 18.4084C53.4033 18.4084 51.9372 16.7553 51.9372 14.7156C51.9372 12.6759 53.4033 11.0223 55.2124 11.0223C56.5276 11.0223 57.7088 11.8395 58.2724 12.9289V16.5624Z" fill="black"/>
<path d="M8.43228 0.0641479C7.16217 0.0641479 6.13267 1.22548 6.13267 2.65765C6.13237 2.99789 6.19161 3.33487 6.30701 3.64934C6.42242 3.96382 6.59172 4.24963 6.80526 4.49046C7.0188 4.73129 7.27239 4.92242 7.55155 5.05294C7.83072 5.18346 8.12999 5.25081 8.43228 5.25115H10.7323V2.65765C10.7328 1.97046 10.4908 1.31118 10.0594 0.824817C9.62812 0.338454 9.04283 0.0648372 8.43228 0.0641479ZM8.43228 6.98015H2.29961C1.02949 6.98015 0 8.14149 0 9.57409C0 11.0063 1.02949 12.1676 2.29961 12.1676H8.43267C9.7024 12.1676 10.7323 11.0063 10.7323 9.57409C10.7323 8.14149 9.7024 6.98015 8.43228 6.98015Z" fill="#36C5F0"/>
<path d="M22.9976 9.57407C22.9976 8.14147 21.9677 6.98014 20.6976 6.98014C19.4275 6.98014 18.398 8.14147 18.398 9.57407V12.1676H20.6976C21.3082 12.1669 21.8935 11.8933 22.3248 11.4069C22.7561 10.9205 22.9981 10.2613 22.9976 9.57407ZM16.8649 9.57407V2.65764C16.8654 1.97046 16.6234 1.31118 16.1921 0.824816C15.7608 0.338453 15.1755 0.0648372 14.5649 0.0641479C13.2948 0.0641479 12.2653 1.22548 12.2653 2.65764V9.57364C12.2653 11.0067 13.2948 12.168 14.5649 12.168C15.1755 12.1673 15.7608 11.8937 16.1921 11.4073C16.6234 10.921 16.8654 10.2613 16.8649 9.57407Z" fill="#2EB67D"/>
<path d="M14.5649 26C15.1755 25.9993 15.7608 25.7257 16.1921 25.2393C16.6234 24.753 16.8654 24.0937 16.8649 23.4065C16.8654 22.7193 16.6234 22.06 16.1921 21.5737C15.7608 21.0873 15.1755 20.8137 14.5649 20.813H12.2653V23.4065C12.2653 24.8387 13.2948 26 14.5649 26ZM14.5649 19.084H20.698C21.9677 19.084 22.9976 17.9226 22.9976 16.49C22.9981 15.8029 22.7561 15.1436 22.3248 14.6572C21.8934 14.1709 21.3081 13.8972 20.6976 13.8965H14.5649C13.2948 13.8965 12.2653 15.0579 12.2653 16.49C12.265 16.8303 12.3243 17.1673 12.4397 17.4817C12.5551 17.7962 12.7244 18.082 12.9379 18.3229C13.1514 18.5637 13.405 18.7548 13.6842 18.8853C13.9634 19.0159 14.2626 19.0836 14.5649 19.084Z" fill="#ECB22E"/>
<path d="M1.16033e-06 16.49C-0.000302346 16.8303 0.058938 17.1673 0.17434 17.4817C0.289742 17.7962 0.459045 18.082 0.672584 18.3229C0.886122 18.5637 1.13971 18.7548 1.41888 18.8853C1.69804 19.0159 1.99732 19.0832 2.29961 19.0836C2.91015 19.0829 3.49545 18.8092 3.92677 18.3229C4.35809 17.8365 4.60011 17.1772 4.5996 16.49V13.8965H2.29961C1.02949 13.8965 1.16033e-06 15.0579 1.16033e-06 16.49ZM6.13267 16.49V23.4061C6.13267 24.8387 7.16217 26 8.43228 26C9.04283 25.9993 9.62812 25.7257 10.0594 25.2393C10.4908 24.753 10.7328 24.0937 10.7323 23.4065V16.49C10.7326 16.1498 10.6733 15.8128 10.5579 15.4983C10.4425 15.1838 10.2731 14.8979 10.0596 14.6571C9.84598 14.4163 9.59234 14.2251 9.31313 14.0946C9.03392 13.9641 8.73461 13.8968 8.43228 13.8965C7.16217 13.8965 6.13267 15.0579 6.13267 16.49Z" fill="#E01E5A"/>
</g>
<defs>
<clipPath id="clip0_0_28">
<rect width="92.4" height="26" fill="white"/>
</clipPath>
</defs>
</svg>
