<svg width="52" height="52" viewBox="0 0 52 52" fill="none" xmlns="http://www.w3.org/2000/svg">
<path d="M34.1148 40.2492L30.743 37.9234L27.625 35.7804L30.875 32.5406L33.8 30.8953C35.9531 33.6171 36.0648 37.4257 34.1148 40.2492Z" fill="#009444"/>
<path d="M34.5008 39.5891C32.3375 38.0961 30.1742 36.6133 28.011 35.1203C28.0617 35.5164 28.1125 35.9226 28.1633 36.3187C29.1891 35.293 30.2149 34.2672 31.2406 33.2516C31.2813 33.2109 31.3828 33.1398 31.4031 33.0891C31.3828 33.1601 31.1594 33.2414 31.3727 33.1297C31.6977 32.9672 32.0125 32.7742 32.3274 32.5914C32.9469 32.2461 33.5664 31.9008 34.186 31.5555C33.8813 31.5148 33.5664 31.4742 33.2617 31.4336C35.1711 33.8914 35.1711 37.3141 33.4547 39.8633C32.9063 40.6758 34.2266 41.4375 34.775 40.6351C36.9078 37.4766 36.6641 33.343 34.3485 30.3672C34.1453 30.1031 33.6985 30.093 33.4242 30.2453C32.7946 30.6008 32.1547 30.9562 31.525 31.3117C31.068 31.5656 30.5805 31.7789 30.1946 32.1445C29.1383 33.1601 28.1227 34.2164 27.0867 35.2523C26.7211 35.618 26.843 36.1766 27.2391 36.4508C29.4024 37.9336 31.5656 39.4266 33.7289 40.9195C34.5414 41.468 35.3031 40.1476 34.5008 39.5891Z" fill="black"/>
<path d="M15.4172 17.0726L6.03281 26.457C5.93124 26.5586 5.83984 26.6601 5.75859 26.7719C5.70781 26.8429 5.65702 26.914 5.60624 26.9851C5.60624 26.9953 5.59609 27.0054 5.58593 27.0156C5.56562 27.0461 5.54531 27.0765 5.53515 27.107C5.48437 27.1883 5.44374 27.2594 5.41327 27.3406C5.39296 27.3711 5.38281 27.4015 5.37265 27.432C5.36249 27.4422 5.36249 27.4625 5.35234 27.4726C5.33202 27.5031 5.32187 27.5437 5.31171 27.5742V27.5844C5.30156 27.6148 5.2914 27.6453 5.28124 27.6758C5.27109 27.6961 5.27109 27.7062 5.26093 27.7265C5.25077 27.757 5.24062 27.7875 5.23046 27.8179C5.21015 27.8992 5.17968 27.9906 5.16952 28.0718C5.16952 28.0922 5.15937 28.1125 5.15937 28.1328C5.14921 28.1633 5.14921 28.1937 5.14921 28.2242C5.14921 28.2445 5.13906 28.2648 5.13906 28.2851C5.13906 28.3156 5.1289 28.3359 5.1289 28.3664C5.1289 28.3765 5.1289 28.3968 5.1289 28.4172C5.1289 28.4578 5.11874 28.4984 5.11874 28.539C5.07812 29.1586 5.23046 29.7883 5.55546 30.3367C5.63671 30.4687 5.72812 30.6008 5.82968 30.7328C5.86015 30.7734 5.90077 30.814 5.93124 30.8547C5.97187 30.8953 6.00234 30.9359 6.04296 30.9765L16.9914 41.925C18.2406 43.1742 20.2516 43.1742 21.5008 41.925L27.6453 35.7804L30.8953 32.5406L15.4172 17.0726ZM11.4664 30.8851C11.1516 30.8851 10.8367 30.7633 10.6031 30.5297C10.1258 30.0523 10.1258 29.2703 10.6031 28.7929L16.1687 23.2273C16.6461 22.75 17.4281 22.75 17.9055 23.2273C18.3828 23.7047 18.3828 24.4867 17.9055 24.964L12.3398 30.5297C12.0961 30.7734 11.7812 30.8851 11.4664 30.8851ZM14.6859 34.1047C14.3711 34.1047 14.0562 33.9828 13.8125 33.7492C13.3351 33.2718 13.3351 32.4898 13.8125 32.0125L19.3781 26.4468C19.8555 25.9695 20.6375 25.9695 21.1148 26.4468C21.5922 26.9242 21.5922 27.7062 21.1148 28.1836L15.5492 33.7492C15.3156 33.9828 15.0008 34.1047 14.6859 34.1047ZM24.3344 31.4031L18.7687 36.9687C18.525 37.2125 18.2101 37.3242 17.8953 37.3242C17.5805 37.3242 17.2656 37.2023 17.0219 36.9687C16.5445 36.4914 16.5445 35.7093 17.0219 35.232L22.5875 29.6664C23.0648 29.189 23.8469 29.189 24.3242 29.6664C24.8117 30.1437 24.8117 30.9156 24.3344 31.4031Z" fill="#F7941E"/>
<path d="M23.7961 30.8648C22.0187 32.6421 20.2312 34.4296 18.4539 36.207C18.3828 36.2781 18.3117 36.3593 18.2305 36.4304C17.875 36.7046 17.3062 36.4507 17.4484 35.9734C17.5297 35.6789 17.9461 35.3945 18.1492 35.1914C19.2664 34.0742 20.3734 32.957 21.4906 31.85C21.968 31.3726 22.4453 30.8953 22.9226 30.4179C23.0039 30.3367 23.0953 30.225 23.1969 30.1539C23.6742 29.8492 24.1617 30.4484 23.7961 30.8648C23.1461 31.596 24.2226 32.6726 24.8726 31.9414C25.4211 31.3218 25.6242 30.489 25.2687 29.7171C24.9437 28.996 24.1922 28.5187 23.3898 28.5492C22.5875 28.5796 22.0898 29.0773 21.5719 29.6054C20.2719 30.9054 18.9719 32.2054 17.682 33.5054C17.2961 33.8914 16.8898 34.2671 16.5141 34.6734C15.5187 35.7398 15.8234 37.5476 17.3062 38.0046C18.2711 38.2992 19.0125 37.8015 19.6625 37.1617C20.2312 36.5929 20.8101 36.014 21.3789 35.4453C22.5367 34.2875 23.7047 33.1195 24.8625 31.9617C25.5633 31.2406 24.4867 30.164 23.7961 30.8648ZM14.6859 33.3429C14.2391 33.3125 14.107 32.8656 14.3609 32.5406C14.432 32.4492 14.5234 32.3781 14.6047 32.2968C15.0312 31.8703 15.468 31.4335 15.8945 31.007C17.0219 29.8796 18.1391 28.7625 19.2664 27.6351C19.4898 27.4117 19.7031 27.1375 19.957 26.9546C20.3125 26.7007 20.8305 26.9851 20.6984 27.4421C20.6578 27.5843 20.5562 27.6656 20.4547 27.7671C19.5 28.7421 18.5148 29.707 17.55 30.6718C16.9508 31.271 16.3414 31.8703 15.7422 32.4796C15.4883 32.7335 15.082 33.3226 14.6859 33.3429C13.7109 33.4039 13.7008 34.9273 14.6859 34.8664C15.5391 34.8156 16.0266 34.3484 16.5851 33.7898C17.1945 33.1804 17.8039 32.571 18.4133 31.9617C19.4898 30.8851 20.5969 29.8492 21.6328 28.7421C22.6281 27.6757 22.293 25.8781 20.8406 25.421C19.9164 25.1265 19.1547 25.5835 18.5351 26.2132C17.2758 27.4726 16.0062 28.7421 14.7469 30.0015C14.2695 30.4789 13.7719 30.946 13.3047 31.4437C12.0758 32.7539 12.8883 34.7648 14.6758 34.8765C15.6609 34.9273 15.6609 33.4039 14.6859 33.3429ZM11.4664 30.1234C11.0195 30.0929 10.8875 29.6359 11.1414 29.321C11.2125 29.2296 11.3039 29.1585 11.3851 29.0773C11.8117 28.6507 12.2484 28.214 12.675 27.7875C13.8023 26.6601 14.9195 25.5429 16.0469 24.4156C16.2703 24.1921 16.4836 23.9179 16.7375 23.7351C17.093 23.4812 17.6109 23.7656 17.4789 24.2226C17.4383 24.3648 17.3367 24.446 17.2351 24.5476C16.2703 25.5226 15.2953 26.4875 14.3305 27.4523C13.7312 28.0515 13.1219 28.6609 12.5226 29.2601C12.2687 29.514 11.8726 30.1031 11.4664 30.1234C10.4914 30.1843 10.4812 31.7078 11.4664 31.6468C12.3195 31.596 12.807 31.1289 13.3656 30.5703C13.975 29.9609 14.5844 29.3515 15.1937 28.7421C16.2703 27.6656 17.3773 26.6195 18.4133 25.5125C19.4086 24.446 19.0734 22.6585 17.6211 22.1914C16.6867 21.8968 15.9351 22.3539 15.3156 22.9835C14.0562 24.2429 12.7867 25.5125 11.5273 26.7718C11.05 27.2492 10.5523 27.7164 10.0851 28.214C8.85624 29.5242 9.66874 31.5351 11.4562 31.6468C12.4516 31.7078 12.4414 30.1843 11.4664 30.1234Z" fill="black"/>
<path d="M14.8789 16.5344C12.6851 18.7281 10.4914 20.9219 8.3078 23.1054C7.38359 24.0297 6.45937 24.9336 5.5453 25.8679C3.98124 27.4523 3.96093 29.9406 5.53515 31.5453C7.77968 33.8304 10.0648 36.075 12.3195 38.3297C13.4875 39.4976 14.6555 40.6656 15.8234 41.8336C16.0266 42.0367 16.2297 42.25 16.443 42.4531C17.5094 43.4789 19.0937 43.8953 20.5156 43.3976C21.2875 43.1234 21.8562 42.6359 22.4148 42.0773C22.9937 41.4984 23.5726 40.9195 24.1516 40.3304C25.4109 39.0711 26.6703 37.8117 27.9297 36.5523C28.0109 36.4711 28.0922 36.3898 28.1734 36.3086C27.9906 36.3797 27.818 36.4609 27.6351 36.532C28.0617 36.532 28.3562 36.1258 28.6305 35.8515C29.057 35.425 29.4836 34.9984 29.9101 34.5719C30.3164 34.1656 30.7125 33.7695 31.1187 33.3633C31.5148 32.9672 31.8906 32.5304 31.4336 31.9719C30.7633 31.1594 29.9101 30.4484 29.1687 29.707C25.7156 26.2539 22.2523 22.7906 18.7992 19.3375C17.8648 18.4031 16.9203 17.4586 15.9859 16.5242C15.2953 15.8336 14.2187 16.9101 14.9094 17.6008C16.6461 19.3375 18.393 21.0844 20.1297 22.8211C22.9023 25.5937 25.675 28.3664 28.4578 31.1492C29.0976 31.789 29.7375 32.4289 30.3672 33.0586C30.2961 32.8758 30.2148 32.7031 30.1437 32.5203C30.2148 32.3375 30.2961 32.1648 30.3672 31.982C29.2805 33.0586 28.2039 34.1453 27.1172 35.2219C27.3 35.1508 27.4726 35.0695 27.6555 34.9984C27.1781 34.9984 26.7516 35.5875 26.4469 35.8922C25.8273 36.5117 25.2078 37.1414 24.5781 37.7609C23.4203 38.9187 22.2726 40.0765 21.1148 41.2242C20.4851 41.8437 19.6828 42.2094 18.7891 42.0265C18.1797 41.9047 17.743 41.5594 17.3266 41.1328C16.3719 40.1781 15.4273 39.2336 14.4726 38.2789C11.9844 35.7906 9.50624 33.3125 7.01796 30.8242C6.77421 30.5804 6.49999 30.3367 6.30702 30.0625C6.08358 29.7273 5.93124 29.3414 5.90077 28.9351C5.88046 28.7523 5.89062 28.5695 5.90077 28.3969C5.92108 28.2242 5.89062 28.3664 5.9414 28.1937C6.07343 27.6859 6.17499 27.4219 6.55077 27.0156C7.25155 26.2742 7.99296 25.5734 8.71405 24.8523C11.0906 22.4758 13.457 20.1094 15.8336 17.7328C15.8844 17.682 15.9351 17.6312 15.9859 17.5804C16.6461 16.9203 15.5695 15.8437 14.8789 16.5344Z" fill="black"/>
<path d="M46.9016 23.5625L33.8 30.8954L30.875 32.5407L15.4172 17.0727L24.3851 1.04614L30.2656 6.91645L40.3812 17.0422L46.9016 23.5625Z" fill="#007EE5"/>
<path d="M46.5258 22.9125C44.4945 24.05 42.4531 25.1875 40.4219 26.3351C38.1164 27.625 35.811 28.9148 33.5055 30.2047C32.5 30.7633 31.5047 31.332 30.4992 31.8906C30.8852 32.114 31.261 32.3273 31.6469 32.5508C31.6469 32.1648 31.3422 31.9312 31.0985 31.6875C30.743 31.332 30.3875 30.9765 30.0219 30.6109C28.8031 29.3922 27.5844 28.1734 26.3758 26.9648C23.5625 24.1515 20.7492 21.3383 17.9258 18.5148C17.2758 17.8648 16.6156 17.2047 15.9656 16.5547C16.0063 16.8594 16.0469 17.1742 16.0875 17.4789C17.093 15.6812 18.1086 13.8734 19.1141 12.0758C20.7188 9.20155 22.3336 6.32733 23.9383 3.44295C24.3141 2.77264 24.6797 2.11249 25.0555 1.44217C24.6594 1.49295 24.2531 1.54374 23.857 1.59452C26.4875 4.22499 29.1281 6.86561 31.7586 9.49608C34.775 12.5125 37.7914 15.5289 40.7977 18.5351C42.6563 20.3937 44.5149 22.2523 46.3633 24.1008C47.0539 24.7914 48.1305 23.7148 47.4399 23.0242C44.8399 20.4242 42.2399 17.8242 39.6399 15.2242C36.5625 12.1469 33.4852 9.06952 30.418 5.99217C28.5899 4.16405 26.7516 2.32577 24.9235 0.497642C24.5781 0.15233 23.9688 0.223424 23.725 0.649986C22.7195 2.44764 21.7039 4.25545 20.6985 6.05311C19.0938 8.92733 17.4789 11.8015 15.8742 14.6859C15.4985 15.3562 15.1328 16.0164 14.757 16.6867C14.5945 16.9812 14.6352 17.3672 14.8789 17.6109C16.6156 19.3476 18.3625 21.0945 20.0992 22.8312C22.8719 25.6039 25.6445 28.3765 28.4274 31.1594C29.0672 31.7992 29.707 32.439 30.3367 33.0687C30.2656 32.8859 30.1844 32.7133 30.1133 32.5305C30.1133 33.1195 30.7531 33.4648 31.261 33.1906C32.9266 32.2562 34.6024 31.3219 36.268 30.3875C39.1524 28.7726 42.0469 27.1578 44.9313 25.5328C45.7133 25.0961 46.4953 24.6594 47.2875 24.2125C48.1508 23.7453 47.3789 22.425 46.5258 22.9125Z" fill="black"/>
<path d="M39.9547 46.9423L36.4914 50.4055C35.8617 51.0352 34.8664 51.1266 34.125 50.6188L24.6086 44.0579L21.5008 41.9149L27.6453 35.7704L30.7531 37.9134L34.125 40.2391L39.711 44.0884C40.6555 44.7485 40.7774 46.1196 39.9547 46.9423Z" fill="#EF4136"/>
<path d="M39.4164 46.4039C38.3399 47.4805 37.2735 48.5469 36.1969 49.6235C35.6891 50.1313 35.1508 50.3953 34.4703 49.9485C34.1149 49.7149 33.7594 49.461 33.4141 49.2172C30.6516 47.318 27.8992 45.4188 25.1367 43.5196C24.05 42.768 22.9633 42.0164 21.8664 41.275C21.9172 41.6711 21.968 42.0774 22.0188 42.4735C23.8063 40.686 25.6039 38.8883 27.3914 37.1008C27.6453 36.8469 27.8992 36.593 28.1633 36.3289C27.8586 36.3696 27.5438 36.4102 27.2391 36.4508C30.7735 38.8782 34.2977 41.3157 37.8321 43.743C38.6344 44.2813 40.5336 45.2055 39.4164 46.4039C38.7461 47.125 39.8227 48.2016 40.493 47.4805C41.3258 46.5766 41.5289 45.2258 40.8281 44.1797C40.5235 43.7328 40.0969 43.4485 39.6602 43.1438C38.4516 42.311 37.2531 41.4883 36.0446 40.6555C34.3992 39.5282 32.7641 38.3907 31.1188 37.2633C30.0828 36.5524 29.0469 35.8414 28.011 35.1203C27.7367 34.9274 27.3102 35.0086 27.0867 35.2422C25.2992 37.0297 23.5016 38.8274 21.7141 40.6149C21.4602 40.8688 21.2063 41.1227 20.9422 41.3868C20.5766 41.7524 20.6985 42.311 21.0946 42.5852C23.2883 44.0985 25.4922 45.6118 27.686 47.125C29.3008 48.2321 30.9156 49.3493 32.5203 50.4563C32.9063 50.7203 33.2922 51.0047 33.6781 51.2586C34.7547 51.9594 36.0852 51.8172 37.0196 50.9438C38.2078 49.8266 39.325 48.6383 40.4828 47.4805C41.1836 46.7899 40.1071 45.7133 39.4164 46.4039Z" fill="black"/>
<path d="M17.9055 24.964L12.3398 30.5296C12.0961 30.7734 11.7813 30.8851 11.4664 30.8851C11.1516 30.8851 10.8367 30.7632 10.6031 30.5296C10.1258 30.0523 10.1258 29.2702 10.6031 28.7929L16.1688 23.2273C16.6461 22.7499 17.4281 22.7499 17.9055 23.2273C18.3828 23.7046 18.3828 24.4866 17.9055 24.964Z" fill="#F7941E"/>
<path d="M17.3672 24.4258C15.5898 26.2031 13.8023 27.9906 12.025 29.768C11.9539 29.8391 11.8828 29.9203 11.8016 29.9914C11.4461 30.2656 10.8773 30.0117 11.0195 29.5344C11.1008 29.2398 11.5172 28.9555 11.7203 28.7523C12.8375 27.6351 13.9445 26.5281 15.0617 25.4109C15.5391 24.9336 16.0164 24.4562 16.4937 23.9789C16.575 23.8976 16.6664 23.7758 16.768 23.7148C17.2351 23.4101 17.7226 24.0195 17.3672 24.4258C16.7172 25.157 17.7937 26.2336 18.4437 25.5023C18.9922 24.8828 19.1953 24.05 18.8398 23.2781C18.5148 22.557 17.7633 22.0797 16.9609 22.1101C16.1586 22.1406 15.6711 22.6484 15.143 23.1664C13.843 24.4664 12.543 25.7664 11.2531 27.0562C10.8672 27.4422 10.4609 27.818 10.0851 28.2242C9.08983 29.2906 9.39452 31.0984 10.8773 31.5555C11.8422 31.85 12.5836 31.3523 13.2336 30.7125C13.8023 30.1437 14.3812 29.5648 14.95 28.9961C16.1078 27.8281 17.2758 26.6703 18.4336 25.5023C19.1344 24.8117 18.0578 23.7351 17.3672 24.4258Z" fill="black"/>
<path d="M21.1149 28.1836L15.5493 33.7492C15.3055 33.993 14.9907 34.1047 14.686 34.1047C14.3711 34.1047 14.0563 33.9828 13.8125 33.7492C13.3352 33.2719 13.3352 32.4898 13.8125 32.0125L19.3782 26.4469C19.8555 25.9695 20.6375 25.9695 21.1149 26.4469C21.6024 26.9242 21.6024 27.7063 21.1149 28.1836Z" fill="#F7941E"/>
<path d="M20.5766 27.6454C18.7992 29.4227 17.0117 31.2102 15.2344 32.9876C15.1633 33.0587 15.0922 33.1399 15.011 33.211C14.6555 33.4852 14.0867 33.2313 14.2289 32.754C14.3102 32.4594 14.7266 32.1751 14.9297 31.9719C16.0469 30.8547 17.1641 29.7376 18.2711 28.6305C18.7485 28.1532 19.2258 27.6758 19.7032 27.1985C19.7844 27.1172 19.8758 26.9954 19.9774 26.9344C20.4547 26.6297 20.9422 27.2391 20.5766 27.6454C19.9266 28.3766 21.0032 29.4532 21.6532 28.7219C22.2016 28.1024 22.4047 27.2696 22.0492 26.4977C21.7242 25.7766 20.9727 25.2993 20.1703 25.3297C19.368 25.3602 18.8703 25.868 18.3524 26.386C17.0524 27.686 15.7524 28.986 14.4625 30.2758C14.0766 30.6618 13.6703 31.0376 13.2946 31.4438C12.2992 32.5102 12.6039 34.3282 14.0867 34.7751C15.0516 35.0696 15.793 34.5719 16.443 33.9321C17.0117 33.3633 17.5907 32.7844 18.1594 32.2157C19.3172 31.0579 20.4852 29.8899 21.643 28.7321C22.3539 28.0313 21.2774 26.9446 20.5766 27.6454Z" fill="black"/>
<path d="M24.3343 31.4032L18.7687 36.9688C18.525 37.2126 18.2101 37.3243 17.8953 37.3243C17.5804 37.3243 17.2656 37.2024 17.0218 36.9688C16.5445 36.4915 16.5445 35.7094 17.0218 35.2321L22.5875 29.6665C23.0648 29.1891 23.8468 29.1891 24.3242 29.6665C24.8117 30.1438 24.8117 30.9157 24.3343 31.4032Z" fill="#F7941E"/>
<path d="M23.7961 30.8649C22.0187 32.6422 20.2312 34.4297 18.4539 36.207C18.3828 36.2781 18.3117 36.3594 18.2304 36.4305C17.875 36.7047 17.3062 36.4508 17.4484 35.9734C17.5297 35.6789 17.9461 35.3945 18.1492 35.1914C19.2664 34.0742 20.3734 32.957 21.4906 31.85C21.9679 31.3727 22.4453 30.8953 22.9226 30.418C23.0039 30.3367 23.0953 30.225 23.1969 30.1539C23.6742 29.8492 24.1617 30.4484 23.7961 30.8649C23.1461 31.5961 24.2226 32.6727 24.8726 31.9414C25.4211 31.3219 25.6242 30.4891 25.2687 29.7172C24.9437 28.9961 24.1922 28.5188 23.3898 28.5492C22.5875 28.5797 22.0898 29.0774 21.5719 29.6055C20.2719 30.9055 18.9719 32.2055 17.682 33.5055C17.2961 33.8914 16.8898 34.2672 16.514 34.6734C15.5187 35.7399 15.8234 37.5477 17.3062 38.0047C18.2711 38.2992 19.0125 37.8016 19.6625 37.1617C20.2312 36.593 20.8101 36.0141 21.3789 35.4453C22.5367 34.2875 23.7047 33.1195 24.8625 31.9617C25.5633 31.2406 24.4867 30.1641 23.7961 30.8649Z" fill="black"/>
<path d="M41.7625 12.7156C41.7625 14.3304 41.2445 15.8336 40.3812 17.0422L30.2656 6.91638C31.4742 5.96169 32.9875 5.39294 34.6227 5.39294C38.5633 5.4031 41.7625 8.67341 41.7625 12.7156Z" fill="#6D6E71"/>
<path d="M41.0008 12.7157C40.9805 14.1477 40.5438 15.4782 39.7211 16.6563C40.1172 16.6055 40.5235 16.5547 40.9196 16.5039C37.9742 13.5586 35.0188 10.6032 32.0735 7.65784C31.6469 7.23128 31.2305 6.81487 30.8039 6.38831C30.8039 6.74378 30.8039 7.10941 30.8039 7.46487C32.825 5.90081 35.6688 5.75862 37.8422 7.05862C39.8227 8.2469 40.9805 10.4203 41.0008 12.7157C41.011 13.6907 42.5344 13.7008 42.5242 12.7157C42.4938 9.85159 41.0008 7.11956 38.4922 5.67737C35.6891 4.06253 32.2461 4.42816 29.7172 6.38831C29.3922 6.64222 29.4532 7.20081 29.7172 7.46487C32.6625 10.4102 35.618 13.3657 38.5633 16.311C38.9899 16.7375 39.4063 17.1539 39.8328 17.5805C40.1985 17.9461 40.7469 17.8242 41.0313 17.4282C42.0063 16.0469 42.5039 14.4016 42.5141 12.7157C42.5344 11.7407 41.011 11.7305 41.0008 12.7157Z" fill="black"/>
</svg>
