<svg width="30" height="29" viewBox="0 0 30 29" fill="none" xmlns="http://www.w3.org/2000/svg">
<ellipse cx="15" cy="14.5" rx="15" ry="14.5" fill="#FF7D45"/>
<path d="M25.8333 11.9593C25.9375 11.4385 25.5208 10.8135 25 10.8135L19.0625 9.98016L16.3542 4.56349C16.25 4.35516 16.1458 4.25099 15.9375 4.14683C15.4167 3.83433 14.7917 4.04266 14.4792 4.56349L11.875 9.98016L5.9375 10.8135C5.625 10.8135 5.41667 10.9177 5.3125 11.126C4.89583 11.5427 4.89583 12.1677 5.3125 12.5843L9.58333 16.751L8.54167 22.6885C8.54167 22.8968 8.54167 23.1052 8.64583 23.3135C8.95833 23.8343 9.58333 24.0427 10.1042 23.7302L15.4167 20.9177L20.7292 23.7302C20.8333 23.8343 21.0417 23.8343 21.25 23.8343C21.3542 23.8343 21.3542 23.8343 21.4583 23.8343C21.9792 23.7302 22.3958 23.2093 22.2917 22.5843L21.25 16.6468L25.5208 12.4802C25.7292 12.376 25.8333 12.1677 25.8333 11.9593Z" fill="white"/>
</svg>
