<svg width="39" height="40" viewBox="0 0 39 40" fill="none" xmlns="http://www.w3.org/2000/svg">
<path d="M20.0028 1.71875C10.5879 1.71875 2.96311 9.34355 2.96311 18.7584C2.96311 22.5518 4.20471 26.0557 6.29944 28.8893L1.95764 38.2812L3.0926 37.7557L11.8371 33.7186C14.2594 35.0439 17.0397 35.798 19.9951 35.798C29.4024 35.798 37.0348 28.1732 37.0348 18.7584C37.0424 9.34355 29.41 1.71875 20.0028 1.71875ZM29.0901 26.0328C28.991 26.5051 28.7854 26.9545 28.4883 27.3506C28.1227 27.8381 27.6504 28.2037 27.1096 28.4322C26.5688 28.6607 25.9746 28.7521 25.3805 28.676C23.7885 28.4855 22.2498 27.9752 20.8711 27.1525C19.2791 26.208 17.1387 24.7379 15.5239 22.6355C13.8024 20.617 12.8655 18.2557 12.2713 16.4961C11.761 14.9803 11.5781 13.3654 11.7229 11.7734C11.7762 11.1717 11.9895 10.608 12.3246 10.1281C12.6598 9.64824 13.1244 9.25977 13.6729 9.0084C14.1223 8.79512 14.6098 8.69609 15.0897 8.69609C15.7752 8.69609 16.6131 8.68848 17.192 9.0998C18.0908 9.73203 18.4717 10.9812 18.4717 12.0781C18.4717 12.1771 18.4641 12.2838 18.4565 12.3828C18.4032 12.9846 18.3498 13.5102 18.0071 13.99C17.6719 14.4699 17.0549 14.8889 16.5065 15.1479C16.9254 17.4025 17.649 19.0783 18.6469 20.16C19.0735 20.7541 19.6524 21.3178 20.3912 21.8434C21.1301 22.3689 22.0213 22.8488 23.0801 23.2906C23.4457 22.8107 23.9865 22.2928 24.5274 22.0643C25.0606 21.8357 25.5938 21.8891 26.1879 21.9652C26.2869 21.9805 26.3936 21.9957 26.4926 22.0186C27.559 22.2471 28.7016 22.8793 29.1358 23.8924C29.41 24.5475 29.2348 25.3625 29.0901 26.0328Z" fill="#007EE5"/>
</svg>
