<svg width="145" height="146" viewBox="0 0 145 146" fill="none" xmlns="http://www.w3.org/2000/svg">
<mask id="mask0_0_71" style="mask-type:luminance" maskUnits="userSpaceOnUse" x="72" y="51" width="38" height="38">
<path d="M72.3687 51.244H109.199V88.0739H72.3687V51.244Z" fill="white"/>
</mask>
<g mask="url(#mask0_0_71)">
<path d="M109.171 67.632V51.244C88.8458 51.244 72.3687 67.7211 72.3687 88.0468H88.7567C88.7567 76.773 97.8977 67.632 109.171 67.632Z" fill="#FF7D45"/>
</g>
<mask id="mask1_0_71" style="mask-type:luminance" maskUnits="userSpaceOnUse" x="35" y="35" width="47" height="46">
<path d="M35.8257 35.0266H81.3557V80.54H35.8257V35.0266Z" fill="white"/>
</mask>
<g mask="url(#mask1_0_71)">
<path d="M81.324 35.0266C81.324 60.1554 60.9545 80.5249 35.8257 80.5249V59.7521C49.4723 59.7521 60.5331 48.7004 60.5512 35.0629L81.324 35.0266Z" fill="#3F2305"/>
</g>
<mask id="mask2_0_71" style="mask-type:luminance" maskUnits="userSpaceOnUse" x="86" y="35" width="9" height="8">
<path d="M86.8354 35.0266H94.7077V42.8989H86.8354V35.0266Z" fill="white"/>
</mask>
<g mask="url(#mask2_0_71)">
<mask id="mask3_0_71" style="mask-type:luminance" maskUnits="userSpaceOnUse" x="86" y="35" width="9" height="8">
<path d="M90.7716 35.0266C88.5981 35.0266 86.8354 36.7893 86.8354 38.9628C86.8354 41.1362 88.5981 42.8989 90.7716 42.8989C92.9451 42.8989 94.7077 41.1362 94.7077 38.9628C94.7077 36.7893 92.9451 35.0266 90.7716 35.0266Z" fill="white"/>
</mask>
<g mask="url(#mask3_0_71)">
<path d="M86.8354 35.0266H94.7077V42.8989H86.8354V35.0266Z" fill="#3F2305"/>
</g>
</g>
<path d="M37.6534 98.7808L43.2117 107.004L39.2786 107.022L35.6838 101.747L32.1736 107.064L28.2163 107.082L33.7021 98.799L28.9292 91.7665L32.8624 91.7423L35.6536 95.8506L38.3965 91.7121L42.3478 91.6879L37.6534 98.7808Z" fill="#3F2305"/>
<path d="M52.1321 91.4157C53.1712 91.4127 54.1515 91.6181 55.0744 92.032C55.9957 92.4428 56.8023 93.0077 57.491 93.7237C58.1798 94.4411 58.725 95.2749 59.1283 96.2249C59.5301 97.1719 59.734 98.1854 59.7385 99.2639C59.7415 100.332 59.5482 101.348 59.1585 102.315C58.7673 103.282 58.2311 104.127 57.5514 104.852C56.8702 105.577 56.0712 106.154 55.1529 106.58C54.2346 107.006 53.2558 107.222 52.2166 107.227C51.1805 107.234 50.2002 107.029 49.2744 106.611C48.3515 106.192 47.5495 105.624 46.8698 104.907C46.1886 104.191 45.6463 103.351 45.2446 102.387C44.8413 101.425 44.6374 100.41 44.6344 99.3424C44.6298 98.264 44.8232 97.249 45.2144 96.2974C45.604 95.3428 46.1357 94.503 46.8094 93.778C47.4815 93.053 48.2775 92.4821 49.1958 92.0622C50.1172 91.6393 51.0959 91.4248 52.1321 91.4157ZM52.1985 103.97C52.7906 103.97 53.3434 103.846 53.86 103.596C54.3796 103.347 54.8297 103.008 55.2133 102.581C55.6 102.155 55.9036 101.661 56.1256 101.101C56.3461 100.537 56.4549 99.9315 56.4519 99.282C56.4473 98.634 56.3325 98.0253 56.1075 97.4574C55.8809 96.8895 55.5713 96.3941 55.1771 95.9712C54.7859 95.5482 54.3312 95.216 53.8116 94.9743C53.2951 94.7326 52.7423 94.6118 52.1502 94.6118C51.5581 94.6163 51.0023 94.7432 50.4827 94.9924C49.9661 95.2431 49.516 95.5815 49.1294 96.0074C48.7457 96.4349 48.4436 96.9318 48.2231 97.4997C48.0011 98.0676 47.8923 98.6763 47.8969 99.3243C47.8999 99.9738 48.0147 100.579 48.2412 101.143C48.4663 101.703 48.7744 102.194 49.1656 102.617C49.5598 103.04 50.0145 103.372 50.531 103.614C51.0506 103.856 51.6064 103.975 52.1985 103.97Z" fill="#3F2305"/>
<path d="M61.4424 91.5845L71.0124 91.5301L71.0305 94.5086L64.7411 94.5449L64.7532 97.312L70.2874 97.2818L70.3055 100.26L64.7713 100.29L64.7895 103.922L71.0788 103.885L71.097 106.846L61.527 106.9L61.4424 91.5845Z" fill="#3F2305"/>
<path d="M80.6795 98.1299L86.4735 98.0997L86.5037 103.718C85.6457 104.818 84.6912 105.652 83.6399 106.22C82.5917 106.785 81.4921 107.069 80.3412 107.078C79.302 107.081 78.3202 106.874 77.3989 106.455C76.476 106.037 75.674 105.469 74.9943 104.752C74.3131 104.036 73.7708 103.199 73.3691 102.244C72.9703 101.287 72.7664 100.267 72.7589 99.1872C72.7543 98.1088 72.9477 97.0938 73.3389 96.1422C73.7286 95.1876 74.2602 94.3478 74.9339 93.6228C75.606 92.8978 76.402 92.3269 77.3203 91.907C78.2387 91.4841 79.2174 91.2711 80.2566 91.2666C81.2353 91.259 82.1612 91.4342 83.0357 91.7922C83.9088 92.1472 84.7591 92.7392 85.5853 93.5685L83.6943 95.8885C83.0856 95.3296 82.5131 94.955 81.9785 94.7647C81.4468 94.5759 80.8849 94.4808 80.2928 94.4808C79.6887 94.4853 79.1223 94.6122 78.5951 94.8614C78.071 95.1076 77.6164 95.4414 77.2297 95.8643C76.8461 96.2842 76.544 96.7766 76.3235 97.3445C76.1014 97.9124 75.9927 98.5211 75.9972 99.1691C76.0002 99.8186 76.115 100.424 76.3416 100.988C76.5666 101.548 76.8748 102.039 77.266 102.462C77.6602 102.885 78.1193 103.217 78.6435 103.459C79.1706 103.7 79.737 103.82 80.3412 103.815C80.8758 103.815 81.406 103.717 81.9301 103.519C82.4573 103.318 82.9844 102.993 83.513 102.546L83.507 100.885L80.6976 100.897L80.6795 98.1299Z" fill="#3F2305"/>
<path d="M97.5996 91.3826L104.082 106.668L100.536 106.686L99.1342 103.406L92.6334 103.442L91.2921 106.735L87.7275 106.759L94.035 91.4068L97.5996 91.3826ZM97.8896 100.433L95.8536 95.6299L93.8659 100.457L97.8896 100.433Z" fill="#3F2305"/>
<path d="M115.959 91.2873L119.221 91.2692L119.306 106.585L116.194 106.597L108.775 96.6342L108.83 106.639L105.567 106.657L105.482 91.3417L108.552 91.3235L116.013 101.353L115.959 91.2873Z" fill="#3F2305"/>
<path d="M57.9747 112.589C58.2435 112.589 58.4716 112.629 58.6574 112.71C58.8462 112.791 58.9912 112.913 59.0924 113.078C59.1921 113.24 59.2434 113.438 59.2434 113.67C59.2434 114.008 59.1467 114.267 58.9534 114.443C58.7631 114.622 58.4701 114.709 58.0713 114.709H57.4551V112.589H57.9747ZM58.0713 114.504C58.381 114.504 58.6166 114.437 58.7782 114.305C58.9383 114.169 59.0199 113.959 59.0199 113.676C59.0199 113.374 58.9292 113.154 58.748 113.012C58.5667 112.867 58.3085 112.794 57.9747 112.794H57.6665V114.504H58.0713Z" fill="#3F2305"/>
<path d="M59.8149 112.589H60.0264V114.709H59.8149V112.589Z" fill="#3F2305"/>
<path d="M62.8553 113.688V113.694C62.8553 113.916 62.81 114.108 62.7224 114.268C62.6333 114.425 62.5079 114.546 62.3478 114.631C62.1862 114.715 62.0004 114.758 61.792 114.758C61.5533 114.758 61.3449 114.708 61.1636 114.607C60.9824 114.502 60.8404 114.365 60.7407 114.196C60.644 114.027 60.5957 113.844 60.5957 113.646C60.5957 113.45 60.644 113.265 60.7407 113.096C60.8404 112.924 60.9778 112.787 61.1515 112.685C61.3283 112.586 61.5322 112.534 61.7617 112.534C61.9505 112.534 62.1212 112.569 62.2753 112.637C62.4324 112.707 62.5834 112.809 62.7284 112.945L62.5713 113.096C62.4505 112.984 62.3191 112.897 62.1786 112.836C62.0412 112.773 61.9037 112.74 61.7678 112.74C61.5896 112.74 61.4295 112.781 61.2845 112.861C61.1395 112.938 61.0247 113.046 60.9401 113.187C60.8585 113.324 60.8192 113.475 60.8192 113.64C60.8192 113.806 60.8615 113.959 60.9461 114.099C61.0307 114.237 61.147 114.347 61.2965 114.431C61.4446 114.513 61.6122 114.552 61.798 114.552C61.9339 114.552 62.0608 114.528 62.1786 114.48C62.2949 114.428 62.3916 114.353 62.4686 114.256C62.5487 114.157 62.5985 114.037 62.6197 113.9H61.943V113.688H62.8553Z" fill="#3F2305"/>
<path d="M63.4102 112.589H63.6216V114.709H63.4102V112.589Z" fill="#3F2305"/>
<path d="M64.5471 112.794H64.0698V112.589H65.2298V112.794H64.7586V114.709H64.5471V112.794Z" fill="#3F2305"/>
<path d="M67.2464 114.709L66.9202 114.015H65.9897L65.6635 114.709H65.4399L66.4308 112.589H66.4851L67.4639 114.709H67.2464ZM66.0864 113.809H66.8235L66.4549 113.018L66.0864 113.809Z" fill="#3F2305"/>
<path d="M68.0996 112.589V114.504H68.9153V114.709H67.8882V112.589H68.0996Z" fill="#3F2305"/>
<path d="M72.6565 114.709H72.4511L72.2577 113.265L72.2456 113.193L72.2094 113.265L71.4965 114.709H71.4421L70.7171 113.259L70.6809 113.181L70.6688 113.271L70.4754 114.709H70.27L70.5721 112.589H70.6084L71.4361 114.262L71.4663 114.329L71.5025 114.256L72.3242 112.589H72.3604L72.6565 114.709Z" fill="#3F2305"/>
<path d="M74.7874 114.709L74.4612 114.015H73.5307L73.2045 114.709H72.981L73.9718 112.589H74.0262L75.0049 114.709H74.7874ZM73.6274 113.809H74.3645L73.996 113.018L73.6274 113.809Z" fill="#3F2305"/>
<path d="M76.0339 112.589C76.2755 112.589 76.4568 112.64 76.5776 112.74C76.6984 112.841 76.7589 112.978 76.7589 113.151C76.7589 113.28 76.7256 113.386 76.6622 113.471C76.6018 113.555 76.5172 113.62 76.4084 113.664C76.2997 113.705 76.1698 113.725 76.0218 113.725L76.783 114.709H76.5232L75.7741 113.725H75.6411V114.709H75.4297V112.589H76.0339ZM76.0218 113.513C76.1819 113.513 76.3072 113.486 76.3964 113.428C76.4885 113.368 76.5353 113.276 76.5353 113.151C76.5353 113.042 76.496 112.956 76.4205 112.891C76.3435 112.827 76.2287 112.794 76.0761 112.794H75.6411V113.513H76.0218Z" fill="#3F2305"/>
<path d="M78.752 114.709H78.4862L77.5376 113.658V114.709H77.3262V112.589H77.5376V113.471L78.3955 112.589H78.6553L77.7128 113.567L78.752 114.709Z" fill="#3F2305"/>
<path d="M79.1572 112.589H80.3656V112.794H79.3687V113.465H80.3656V113.664H79.3687V114.504H80.3656V114.709H79.1572V112.589Z" fill="#3F2305"/>
<path d="M81.1511 112.794H80.6738V112.589H81.8338V112.794H81.3626V114.709H81.1511V112.794Z" fill="#3F2305"/>
<path d="M82.2915 112.589H82.503V114.709H82.2915V112.589Z" fill="#3F2305"/>
<path d="M84.6131 112.589H84.8245V114.709H84.7762L83.3745 113.102V114.709H83.1631V112.589H83.2054L84.6131 114.214V112.589Z" fill="#3F2305"/>
<path d="M87.6536 113.688V113.694C87.6536 113.916 87.6083 114.108 87.5207 114.268C87.4316 114.425 87.3062 114.546 87.1461 114.631C86.9845 114.715 86.7987 114.758 86.5903 114.758C86.3516 114.758 86.1432 114.708 85.962 114.607C85.7807 114.502 85.6387 114.365 85.539 114.196C85.4424 114.027 85.394 113.844 85.394 113.646C85.394 113.45 85.4424 113.265 85.539 113.096C85.6387 112.924 85.7762 112.787 85.9499 112.685C86.1266 112.586 86.3305 112.534 86.5601 112.534C86.7489 112.534 86.9196 112.569 87.0736 112.637C87.2307 112.707 87.3818 112.809 87.5268 112.945L87.3697 113.096C87.2488 112.984 87.1174 112.897 86.977 112.836C86.8395 112.773 86.7021 112.74 86.5661 112.74C86.3879 112.74 86.2278 112.781 86.0828 112.861C85.9378 112.938 85.823 113.046 85.7384 113.187C85.6569 113.324 85.6176 113.475 85.6176 113.64C85.6176 113.806 85.6599 113.959 85.7445 114.099C85.829 114.237 85.9453 114.347 86.0949 114.431C86.2429 114.513 86.4106 114.552 86.5963 114.552C86.7323 114.552 86.8591 114.528 86.977 114.48C87.0933 114.428 87.1899 114.353 87.267 114.256C87.347 114.157 87.3969 114.037 87.418 113.9H86.7413V113.688H87.6536Z" fill="#3F2305"/>
</svg>
